<?xml version="1.0" encoding="utf-8"?>
<!-- Generator: Adobe Illustrator 22.0.1, SVG Export Plug-In . SVG Version: 6.00 Build 0)  -->
<svg version="1.1" id="Layer_1" xmlns="http://www.w3.org/2000/svg" xmlns:xlink="http://www.w3.org/1999/xlink" x="0px" y="0px"
	 viewBox="0 0 50 50" style="enable-background:new 0 0 50 50;" xml:space="preserve">
<g>
	<circle cx="36.7" cy="16.6" r="0.8"/>
	<path d="M4,21.6L4.9,24c0.1,0.2,0.2,0.4,0.5,0.5c0.1,0.1,0.3,0.1,0.4,0.1c0.1,0,0.2,0,0.3,0l5.3-1.8v12.9L11,35.7
		c-0.3-0.1-0.6-0.1-0.8,0.1c-0.2,0.2-0.4,0.4-0.4,0.7L8.8,48.7c0,0.5,0.3,0.9,0.8,1c0.5,0,0.9-0.3,1-0.8l1-11.1l19.4,6.7l1.5,4.6
		c0.1,0.4,0.5,0.6,0.9,0.6c0.1,0,0.2,0,0.3,0c0.5-0.2,0.7-0.7,0.6-1.1l-1.7-5c-0.1-0.3-0.3-0.5-0.6-0.6l-1.4-0.5v-5
		C41.3,37.1,41.4,32,41.5,27c0-0.5,0-1.1,0-1.6h4.3c0.3,0,0.7-0.2,0.8-0.5c0.2-0.3,0.1-0.7-0.1-1l-4.9-6.3V16
		c0-4.1-1.7-7.7-4.5-10.3C38.5,5,40.5,3.3,39.3,0c0,0-2.2,3-4.3,2.2c-1.8-0.7-4.3-1.4-5.4,0C29,2,28.3,2,27.6,2h-2.3
		c-7.7,0-14,6.3-14,14v2.2l-6.7,2.3C4.1,20.6,3.9,21.1,4,21.6z M13.1,36.4V22.2l2.6-0.9c0.1,1.9,0.9,4.2,2.4,5.1
		c0.4,0.2,0.9,0.4,1.5,0.4c0.5,0,1.1-0.1,1.8-0.5c0.4-0.2,0.6-0.8,0.4-1.2c-0.2-0.4-0.8-0.6-1.2-0.4c-0.9,0.5-1.4,0.2-1.5,0.1
		c-0.9-0.6-1.5-2.4-1.5-3.9c0-1.8,0.4-3.1,1.1-3.6c0.5-0.3,1.1-0.2,1.4-0.1c1,0.3,1.8,1.3,2.2,2.6c0.1,0.5,0.7,0.7,1.1,0.6
		c0.5-0.1,0.7-0.7,0.6-1.1c-0.1-0.2-0.1-0.4-0.2-0.6l6.7-2.3c0.1,0,0.2-0.1,0.2-0.1l3.7-2.6c0.3-0.2,0.5-0.6,0.3-1
		c-0.1-0.4-0.5-0.6-0.9-0.6l-4.5,0.2c-0.1,0-0.2,0-0.3,0l-9.1,3.1c-0.8-0.1-1.6,0-2.3,0.5c-0.2,0.1-0.3,0.2-0.5,0.4l-4.1,1.4V16
		c0-6.7,5.5-12.2,12.2-12.2h2.3c6.7,0,12.2,5.5,12.2,12.2v1.9c0,0.2,0.1,0.4,0.2,0.6l4,5.1h-3.3c-0.5,0-0.9,0.4-0.9,0.8
		c-0.1,0.9-0.1,1.7-0.1,2.6c0,0.2,0,0.4,0,0.6h-2.9c-0.5,0-0.9,0.4-0.9,0.9s0.4,0.9,0.9,0.9h2.8c-0.3,3.7-1.7,6.2-9.9,6.2
		c-0.5,0-0.9,0.4-0.9,0.9v5.3L13.1,36.4L13.1,36.4z M22.2,16.4l7.2-2.5l1.4,0l-1.1,0.8L22.8,17C22.6,16.8,22.4,16.6,22.2,16.4z
		 M6,21.9l9.9-3.4c-0.1,0.3-0.1,0.6-0.2,0.9l-9.4,3.2L6,21.9z"/>
</g>
</svg>
