<?xml version="1.0" encoding="utf-8"?>
<!-- Generator: Adobe Illustrator 22.0.1, SVG Export Plug-In . SVG Version: 6.00 Build 0)  -->
<svg version="1.1" id="Layer_1" xmlns="http://www.w3.org/2000/svg" xmlns:xlink="http://www.w3.org/1999/xlink" x="0px" y="0px"
	 viewBox="0 0 100 48.3" style="enable-background:new 0 0 100 48.3;" xml:space="preserve">
<path d="M42.3,5.9c-6.8,0-13.1,5.1-14.4,10.8c-0.3,1.3-0.6,4.5-0.6,4.5l-4,7.9c-0.1,0.1-0.1,0.3-0.1,0.5c0,0.7,0.5,1.2,1.2,1.2h2.9
	V35c0,3.9,2.6,5.9,5.9,5.9h2.4v4.6h16V32.7c3.5-2.7,5.7-7,5.7-11.8C57.3,12.6,50.6,5.9,42.3,5.9z M32.6,23c-0.8,0-1.5-0.7-1.5-1.5
	s0.7-1.5,1.5-1.5c0.8,0,1.5,0.7,1.5,1.5C34.1,22.3,33.4,23,32.6,23z"/>
<path d="M65.8,23.1c0.9,0,1.7-0.8,1.7-1.7s-0.8-1.7-1.7-1.7c-0.9,0-1.7,0.8-1.7,1.7S64.9,23.1,65.8,23.1"/>
<path d="M78.6,29.1l-0.2-1.5c1.4-0.2,2.7-0.3,4-0.5l0.2,1.5C81.3,28.8,80,28.9,78.6,29.1L78.6,29.1z"/>
<path d="M95.6,25.5L95,24.1c1.7-0.7,2.4-1.4,2.4-1.8c0-0.2-0.3-0.6-0.7-0.9l0.9-1.3c0.9,0.7,1.4,1.4,1.4,2.2
	C98.9,23.5,97.8,24.6,95.6,25.5L95.6,25.5z"/>
<path d="M95.3,20.6c-0.9-0.4-2.2-0.8-3.7-1.3l0.4-1.5c1.6,0.4,2.9,0.9,3.9,1.3L95.3,20.6L95.3,20.6z"/>
<path d="M89.9,19c-1.2-0.3-2.5-0.5-3.9-0.8l0.3-1.5c1.4,0.3,2.8,0.5,4,0.8L89.9,19L89.9,19z"/>
<path d="M84.4,17.9c-1.2-0.2-2.6-0.4-3.9-0.6l0.2-1.5c1.4,0.2,2.7,0.4,4,0.6L84.4,17.9L84.4,17.9z"/>
<path d="M78.7,17.1c-1.3-0.2-2.6-0.3-4-0.5l0.2-1.5c1.4,0.1,2.7,0.3,4,0.5L78.7,17.1L78.7,17.1z"/>
<path d="M91.7,26.8c0.8-0.2,1.5-0.4,2.2-0.6l-0.5-1.5c-0.5,0.2-1,0.3-1.6,0.5l-6.7-2.4l0.7,3.7c-0.6,0.1-1.1,0.2-1.7,0.3l0.2,1.5
	c0.6-0.1,1.2-0.2,1.7-0.3l0.6,3.1L91.7,26.8z"/>
<path d="M21.4,29.1l0.2-1.5c-1.4-0.2-2.7-0.3-4-0.5l-0.2,1.5C18.6,28.8,20,28.9,21.4,29.1L21.4,29.1z"/>
<path d="M15.7,28.3l0.2-1.5c-1.4-0.2-2.7-0.5-3.9-0.7l-0.3,1.5C12.9,27.8,14.2,28.1,15.7,28.3L15.7,28.3z"/>
<path d="M10,27.2l0.3-1.5c-1.4-0.3-2.7-0.7-3.8-1L6,26.1C7.2,26.5,8.5,26.9,10,27.2L10,27.2z"/>
<path d="M4.4,25.5L5,24.1c-1.8-0.7-2.4-1.4-2.4-1.8c0-0.2,0.3-0.6,0.7-0.9l-0.9-1.3c-0.9,0.7-1.4,1.4-1.4,2.2
	C1.1,23.5,2.1,24.6,4.4,25.5L4.4,25.5z"/>
<path d="M4.7,20.6c0.9-0.4,2.2-0.8,3.7-1.3L8,17.9c-1.6,0.4-2.9,0.9-3.9,1.3L4.7,20.6L4.7,20.6z"/>
<path d="M18.1,17.5c0.5-0.1,1-0.1,1.5-0.2l-0.2-1.5c-0.5,0.1-1,0.1-1.6,0.2l-0.7-3.5L11.9,17c-0.8,0.2-1.5,0.3-2.2,0.5L10,19
	c0.6-0.1,1.3-0.3,2-0.4l6.7,2.3L18.1,17.5z"/>
<path d="M21.2,17.1c1.3-0.2,2.6-0.3,4-0.5l-0.2-1.5c-1.4,0.1-2.7,0.3-4,0.5L21.2,17.1L21.2,17.1z"/>
<path d="M77,28.1l-3.7-7.3c-0.1-0.8-0.3-3.1-0.6-4.2C71.5,11.2,66.4,5.4,58,5.4c-1.8,0-4.4,0.5-6,1.3c0.4,0.3,1.3,1,1.6,1.3
	c0.2,0.2,0.5,0.5,0.7,0.8c1.2-0.4,2.4-0.6,3.7-0.6c6.8,0,11,4.7,12,9.1c0.2,0.9,0.5,3.3,0.5,4.1l0,0.3l3.7,7.3h-3.8v6
	c0,2.2-0.7,3.6-4.1,3.6h-3.6v4.3h-9.1v2.8h11.8v-4.3h0.8c6,0,6.9-4,6.9-6.3v-3.2h1.4c1.4,0,2.5-1.1,2.5-2.5
	C77.2,28.8,77.1,28.4,77,28.1z"/>
</svg>
