<?xml version="1.0" encoding="utf-8"?>
<!-- Generator: Adobe Illustrator 22.0.1, SVG Export Plug-In . SVG Version: 6.00 Build 0)  -->
<svg version="1.1"
	 id="Layer_1" xmlns:cc="http://creativecommons.org/ns#" xmlns:dc="http://purl.org/dc/elements/1.1/" xmlns:inkscape="http://www.inkscape.org/namespaces/inkscape" xmlns:rdf="http://www.w3.org/1999/02/22-rdf-syntax-ns#" xmlns:sodipodi="http://sodipodi.sourceforge.net/DTD/sodipodi-0.dtd" xmlns:svg="http://www.w3.org/2000/svg"
	 xmlns="http://www.w3.org/2000/svg" xmlns:xlink="http://www.w3.org/1999/xlink" x="0px" y="0px" viewBox="0 0 100 99"
	 style="enable-background:new 0 0 100 99;" xml:space="preserve">
<g transform="translate(0,-952.36218)">
	<path d="M68,958.4c-4.9,0-9,4.1-9,9c0,2.1,0.8,4.1,2,5.7c-0.7,0.3-1.4,0.6-2,1c-1.7,1.1-3,3-3,5.3v11H46v-5c0-3.1-2.1-5.7-4.9-6.7
		c1.8-2,2.9-4.5,2.9-7.4c0-6.1-4.9-11-11-11s-11,4.9-11,11c0,2.8,1.1,5.4,2.9,7.4c-2.8,0.9-4.9,3.5-4.9,6.7v5h-7c-3.8,0-7,3.2-7,7
		c0,3.5,2.6,6.4,6,6.9v28.1c0,3.3,2.7,6,6,6h5v1c0,3.9,3.3,7,7,7h6c3.7,0,7-3.1,7-7v-1h32.9H82c1.6,0,3.1-0.6,4.2-1.6
		c1.2-1.1,1.8-2.7,1.8-4.4v-28.1c3.4-0.5,6-3.4,6-6.9c0-3.8-3.2-7-7-7h-7v-11c0-2.2-1.3-4.1-3-5.3c-0.6-0.4-1.3-0.8-2-1
		c1.3-1.6,2-3.5,2-5.7C77,962.4,72.9,958.4,68,958.4z M68,962.4c2.8,0,5,2.2,5,5s-2.2,5-5,5s-5-2.2-5-5S65.2,962.4,68,962.4z
		 M33,964.4c3.9,0,7,3.1,7,7s-3.1,7-7,7s-7-3.1-7-7S29.1,964.4,33,964.4z M65,976.4h6c1.5,0,2.9,0.4,3.8,1s1.3,1.2,1.3,2v11H60v-11
		c0-0.8,0.4-1.4,1.3-2S63.5,976.4,65,976.4z M27,982.4h12c1.7,0,3,1.3,3,3v21.9c0,1.7-1.3,3.1-3,3.1H27c-1.7,0-3-1.3-3-3.1v-21.9
		C24,983.7,25.3,982.4,27,982.4z M13,994.4h7v6h-6.2H13c-1.7,0-3-1.3-3-3S11.3,994.4,13,994.4z M46,994.4h41c1.7,0,3,1.3,3,3
		s-1.3,3-3,3h-1H46V994.4z M16,1004.4h4v2.9c0,2.4,1.2,4.5,3,5.8v21.3h-5c-1.4,0-2-0.6-2-2V1004.4z M46,1004.4h38v28
		c0,0.7-0.2,1.2-0.6,1.5c-0.3,0.3-0.8,0.5-1.4,0.5h-6.1H43v-21.3c1.8-1.3,3-3.4,3-5.8V1004.4z M27,1014.4h12v25c0,1.7-1.5,3-3,3h-6
		c-1.5,0-3-1.3-3-3V1014.4z M75.3,1009.6c0-0.5-0.4-0.8-0.8-0.8h-8.7h-4.2c-0.5,0-0.8,0.4-0.8,0.8c0,0.5,0.4,0.8,0.8,0.8h4.2
		c1.3,0,2.5,0.6,3.2,1.7c0.4,0.5,0.6,1,0.7,1.6h-8.1c-0.5,0-0.8,0.4-0.8,0.8c0,0.5,0.4,0.8,0.8,0.8h8.1c0,0.1-0.1,0.3-0.1,0.4
		c-0.4,1-1.2,1.8-2.3,2.1c-1.7,0.5-3.5,0.4-5.4,0.4l-0.4,0c-0.4,0-0.7,0.2-0.8,0.5c-0.1,0.3,0,0.7,0.2,0.9l10.4,9.3
		c0.2,0.1,0.4,0.2,0.6,0.2c0.2,0,0.5-0.1,0.6-0.3c0.3-0.3,0.3-0.9-0.1-1.2l-8.7-7.7c1.3,0,2.7-0.1,4-0.5c1.6-0.5,2.8-1.6,3.4-3.2
		c0.1-0.3,0.2-0.6,0.2-1h3c0.5,0,0.8-0.4,0.8-0.8c0-0.5-0.4-0.8-0.8-0.8h-3c-0.1-0.9-0.5-1.8-1.1-2.6c-0.2-0.2-0.4-0.5-0.6-0.7h4.7
		C74.9,1010.4,75.3,1010,75.3,1009.6z"/>
</g>
</svg>
