<?xml version="1.0" encoding="utf-8"?>
<!-- Generator: Adobe Illustrator 22.0.1, SVG Export Plug-In . SVG Version: 6.00 Build 0)  -->
<svg version="1.1" id="Layer_1" xmlns="http://www.w3.org/2000/svg" xmlns:xlink="http://www.w3.org/1999/xlink" x="0px" y="0px"
	 viewBox="0 0 84 71" style="enable-background:new 0 0 84 71;" xml:space="preserve">
<g>
	<path d="M54,42.6l13.4-13.4c1,0.6,2.1,0.9,3.3,0.9c1.7,0,3.3-0.7,4.5-1.9c1.2-1.2,1.9-2.8,1.9-4.5s-0.7-3.3-1.9-4.5
		c-1.2-1.2-2.8-1.9-4.5-1.9c-1.7,0-3.3,0.7-4.5,1.9c-1.2,1.2-1.9,2.8-1.9,4.5c0,1.2,0.3,2.3,0.9,3.3L51.9,40.4
		c-1-0.6-2.1-0.9-3.3-0.9c-1.2,0-2.3,0.3-3.3,0.9l-4.4-4.4c0.6-1,0.9-2.1,0.9-3.3c0-1.7-0.7-3.3-1.9-4.5c-1.2-1.2-2.8-1.9-4.5-1.9
		s-3.3,0.7-4.5,1.9S29,31,29,32.7c0,1.2,0.3,2.3,0.9,3.3L16.1,49.8l2.1,2.1L32,38.2c1,0.6,2.1,0.9,3.3,0.9c1.2,0,2.3-0.3,3.3-0.9
		l4.4,4.4c-1.5,2.5-1.2,5.7,0.9,7.9c1.2,1.2,2.8,1.9,4.5,1.9c1.7,0,3.3-0.7,4.5-1.9C55.2,48.3,55.5,45,54,42.6z M68.3,21.3
		c0.6-0.6,1.5-1,2.4-1c0.9,0,1.8,0.4,2.4,1c0.6,0.6,1,1.5,1,2.4s-0.4,1.8-1,2.4c-1.3,1.3-3.5,1.3-4.8,0c-0.6-0.6-1-1.5-1-2.4
		C67.3,22.8,67.7,22,68.3,21.3z M37.8,35.1c-1.3,1.3-3.5,1.3-4.8,0c-0.6-0.6-1-1.5-1-2.4c0-0.9,0.4-1.8,1-2.4c0.6-0.6,1.5-1,2.4-1
		s1.8,0.4,2.4,1C39.1,31.6,39.1,33.8,37.8,35.1z M51,48.3c-1.3,1.3-3.5,1.3-4.8,0c-1.3-1.3-1.3-3.5,0-4.8c0.6-0.6,1.5-1,2.4-1
		c0.9,0,1.8,0.4,2.4,1C52.3,44.8,52.3,47,51,48.3z"/>
	<polygon points="8.1,4.6 4.2,4.6 4.2,63.6 4.2,63.6 4.2,67.4 11.8,67.4 11.8,63.6 8.1,63.6 	"/>
	<rect x="14.2" y="63.6" width="7.6" height="3.9"/>
	<rect x="24.2" y="63.6" width="7.6" height="3.9"/>
	<rect x="34.2" y="63.6" width="7.6" height="3.9"/>
	<rect x="44.2" y="63.6" width="7.6" height="3.9"/>
	<rect x="54.2" y="63.6" width="7.6" height="3.9"/>
	<rect x="64.2" y="63.6" width="7.6" height="3.9"/>
	<rect x="74.2" y="63.6" width="7.6" height="3.9"/>
</g>
</svg>
