<?xml version="1.0" encoding="utf-8"?>
<!-- Generator: Adobe Illustrator 22.0.1, SVG Export Plug-In . SVG Version: 6.00 Build 0)  -->
<svg version="1.1" id="Layer_1" xmlns="http://www.w3.org/2000/svg" xmlns:xlink="http://www.w3.org/1999/xlink" x="0px" y="0px"
	 viewBox="0 0 52 51.3" style="enable-background:new 0 0 52 51.3;" xml:space="preserve">
<g>
	<g>
		<path d="M38.8,14.9H3c-0.6,0-1-0.4-1-1V6.2c0-0.6,0.4-1,1-1h35.8c0.6,0,1,0.4,1,1v7.7C39.8,14.4,39.3,14.9,38.8,14.9z M4,12.9
			h33.8V7.2H4V12.9z"/>
	</g>
	<g>
		<path d="M9.4,9.7c-0.6,0-1-0.4-1-1V3.6c0-0.6,0.4-1,1-1s1,0.4,1,1v5.1C10.4,9.3,9.9,9.7,9.4,9.7z"/>
	</g>
	<g>
		<path d="M14.5,9.7c-0.6,0-1-0.4-1-1V3.6c0-0.6,0.4-1,1-1s1,0.4,1,1v5.1C15.5,9.3,15.1,9.7,14.5,9.7z"/>
	</g>
	<g>
		<path d="M27.3,9.7c-0.6,0-1-0.4-1-1V3.6c0-0.6,0.4-1,1-1s1,0.4,1,1v5.1C28.3,9.3,27.8,9.7,27.3,9.7z"/>
	</g>
	<g>
		<path d="M32.4,9.7c-0.6,0-1-0.4-1-1V3.6c0-0.6,0.4-1,1-1s1,0.4,1,1v5.1C33.4,9.3,32.9,9.7,32.4,9.7z"/>
	</g>
	<g>
		<path d="M11.7,20h-2c-0.6,0-1-0.4-1-1s0.4-1,1-1h2c0.6,0,1,0.4,1,1S12.2,20,11.7,20z"/>
	</g>
	<g>
		<path d="M21.9,20h-2c-0.6,0-1-0.4-1-1s0.4-1,1-1h2c0.6,0,1,0.4,1,1S22.4,20,21.9,20z"/>
	</g>
	<g>
		<path d="M32.1,20h-2c-0.6,0-1-0.4-1-1s0.4-1,1-1h2c0.6,0,1,0.4,1,1S32.7,20,32.1,20z"/>
	</g>
	<g>
		<path d="M11.6,25.1H9.8c-0.6,0-1-0.4-1-1s0.4-1,1-1h1.8c0.6,0,1,0.4,1,1S12.1,25.1,11.6,25.1z"/>
	</g>
	<g>
		<path d="M21.8,25.1H20c-0.6,0-1-0.4-1-1s0.4-1,1-1h1.8c0.6,0,1,0.4,1,1S22.4,25.1,21.8,25.1z"/>
	</g>
	<g>
		<path d="M32.1,25.1h-2c-0.6,0-1-0.4-1-1s0.4-1,1-1h2c0.6,0,1,0.4,1,1S32.7,25.1,32.1,25.1z"/>
	</g>
	<g>
		<path d="M11.5,30.2H9.8c-0.6,0-1-0.4-1-1s0.4-1,1-1h1.8c0.6,0,1,0.4,1,1S12.1,30.2,11.5,30.2z"/>
	</g>
	<g>
		<path d="M21.8,30.2H20c-0.6,0-1-0.4-1-1s0.4-1,1-1h1.7c0.6,0,1,0.4,1,1S22.3,30.2,21.8,30.2z"/>
	</g>
	<g>
		<path d="M38.8,49.4c-6.2,0-11.2-5-11.2-11.2s5-11.2,11.2-11.2S50,32,50,38.1S45,49.4,38.8,49.4z M38.8,28.9
			c-5.1,0-9.2,4.1-9.2,9.2c0,5.1,4.1,9.2,9.2,9.2c5.1,0,9.2-4.1,9.2-9.2C48,33.1,43.9,28.9,38.8,28.9z"/>
	</g>
	<g>
		<path d="M29.3,35.3H3c-0.6,0-1-0.4-1-1V13.9c0-0.6,0.4-1,1-1h35.8c0.6,0,1,0.4,1,1v14.1c0,0.6-0.4,1-1,1c-3.8,0-7.1,2.3-8.5,5.8
			C30.1,35.1,29.7,35.3,29.3,35.3z M4,33.3h24.7c1.7-3.6,5.2-6,9.1-6.3V14.9H4V33.3z"/>
	</g>
	<g>
		<path d="M38.8,30.9c-0.6,0-1-0.4-1-1v-2c0-0.6,0.4-1,1-1s1,0.4,1,1v2C39.8,30.5,39.3,30.9,38.8,30.9z"/>
	</g>
	<g>
		<path d="M38.8,49.4c-0.6,0-1-0.4-1-1v-2c0-0.6,0.4-1,1-1s1,0.4,1,1v2C39.8,48.9,39.3,49.4,38.8,49.4z"/>
	</g>
	<g>
		<path d="M49,39.1h-2c-0.6,0-1-0.4-1-1s0.4-1,1-1h2c0.6,0,1,0.4,1,1S49.6,39.1,49,39.1z"/>
	</g>
	<g>
		<path d="M30.6,39.1h-2c-0.6,0-1-0.4-1-1s0.4-1,1-1h2c0.6,0,1,0.4,1,1S31.1,39.1,30.6,39.1z"/>
	</g>
	<g>
		<path d="M41.8,42.4c-0.3,0-0.6-0.2-0.8-0.5l-3-4.6c-0.3-0.4-0.2-1,0.2-1.3l3.3-2.6c0.4-0.3,1.1-0.3,1.4,0.2
			c0.3,0.4,0.3,1.1-0.2,1.4l-2.6,2l2.5,3.8c0.3,0.5,0.2,1.1-0.3,1.4C42.1,42.4,41.9,42.4,41.8,42.4z"/>
	</g>
</g>
</svg>
