<?xml version="1.0" encoding="utf-8"?>
<!-- Generator: Adobe Illustrator 22.0.1, SVG Export Plug-In . SVG Version: 6.00 Build 0)  -->
<svg version="1.1" id="Layer_1" xmlns="http://www.w3.org/2000/svg" xmlns:xlink="http://www.w3.org/1999/xlink" x="0px" y="0px"
	 viewBox="0 0 89.5 91.5" style="enable-background:new 0 0 89.5 91.5;" xml:space="preserve">
<path d="M76.2,61c0.4,0.4,0.9,0.3,1.2,0c0.3-0.3,0.3-0.9,0-1.2l-4-4c1.1-0.5,2-1.2,2.9-2l2.7-2.7l3-3l3.5,3.5c0.4,0.4,0.9,0.3,1.2,0
	c0.3-0.3,0.3-0.9,0-1.2l-3.5-3.5l0.3-0.3c1.1-1.1,1.1-2.8,0-3.8c-0.2-0.2-0.5-0.4-0.8-0.6l0.5-0.5c1.1-1.1,1.1-2.8,0-3.8
	c-0.2-0.2-0.6-0.4-0.8-0.6c0.8-1.1,0.7-2.6-0.2-3.6c-1-1-2.5-1-3.6-0.2c-0.2-0.3-0.3-0.6-0.6-0.8c-1.1-1.1-2.8-1.1-3.8,0l-2.7,2.5
	L56.3,19.9c-0.1-0.1-0.1-0.1-0.2-0.1c0-0.6-0.1-1.2-0.2-1.9l4.6-4.6c0.4-0.4,0.3-0.9,0-1.2c-0.3-0.3-0.9-0.3-1.2,0l-4,4
	c-0.5-1.1-1.2-2-2-2.9l-2.8-2.7l-3-3L51.1,4c0.4-0.4,0.3-0.9,0-1.2s-0.9-0.3-1.2,0l-3.5,3.5L46,6c-1.1-1.1-2.8-1.1-3.8,0
	c-0.2,0.2-0.4,0.5-0.6,0.8l-0.5-0.5c-1.1-1.1-2.8-1.1-3.8,0c-0.2,0.2-0.4,0.6-0.6,0.8c-1.1-0.8-2.6-0.7-3.6,0.2c-1,1-1,2.5-0.2,3.6
	c-0.3,0.2-0.6,0.3-0.8,0.6c-1.1,1.1-1.1,2.8,0,3.8l2.6,2.6L19.4,33.2c-0.1,0.1-0.1,0.1-0.1,0.2c-0.6,0-1.2,0.1-1.9,0.2L12.8,29
	c-0.4-0.4-0.9-0.3-1.2,0c-0.4,0.4-0.3,0.9,0,1.2l4,4c-1.1,0.5-2,1.2-2.9,2L10,39l-3,3l-3.5-3.6c-0.4-0.4-0.9-0.3-1.2,0
	s-0.3,0.9,0,1.2l3.5,3.5l-0.3,0.4c-1.1,1.1-1.1,2.8,0,3.8c0.2,0.2,0.5,0.4,0.8,0.6l-0.5,0.5c-1.1,1.1-1.1,2.8,0,3.8
	c0.2,0.2,0.6,0.4,0.8,0.6c-0.8,1.1-0.7,2.6,0.2,3.6s2.5,1,3.6,0.2c0.2,0.3,0.3,0.6,0.6,0.8c1.1,1.1,2.8,1.1,3.8,0l2.6-2.6L32.6,70
	c0.1,0.1,0.1,0.1,0.2,0.1c0,0.6,0.1,1.2,0.2,1.9l-4.6,4.6c-0.4,0.4-0.3,0.9,0,1.2c0.3,0.3,0.9,0.3,1.2,0l4-4c0.5,1.1,1.2,2,2,2.9
	l2.7,2.7l3,3L37.9,86c-0.4,0.4-0.3,0.9,0,1.2c0.4,0.4,0.9,0.3,1.2,0l3.5-3.5l0.3,0.3c1.1,1.1,2.8,1.1,3.8,0c0.2-0.2,0.4-0.5,0.6-0.8
	l0.5,0.5c1.1,1.1,2.8,1.1,3.8,0c0.2-0.2,0.4-0.6,0.6-0.8c1.1,0.8,2.6,0.7,3.6-0.2c1-1,1-2.5,0.2-3.6c0.3-0.2,0.6-0.3,0.8-0.6
	c1.1-1.1,1.1-2.8,0-3.8L54.3,72l15.2-15.2c0.1-0.1,0.1-0.1,0.1-0.2c0.6,0,1.2-0.1,1.9-0.2L76.2,61z M75.4,33.9c0.4-0.4,1-0.4,1.4,0
	s0.4,1,0,1.4l-5.6,5.6c-0.4,0.4-0.3,0.9,0,1.2c0.4,0.4,0.9,0.3,1.2,0l5.6-5.6l1.5-1.5c0.4-0.4,1-0.4,1.4,0s0.4,1,0,1.4l-1.5,1.5
	l-5.6,5.6c-0.4,0.4-0.3,0.9,0,1.2c0.4,0.4,0.9,0.3,1.2,0l5.6-5.6c0.4-0.4,1-0.4,1.4,0s0.4,1,0,1.4l-6.1,6.1c-0.4,0.4-0.3,0.9,0,1.2
	c0.4,0.4,0.9,0.3,1.2,0l3.8-3.8c0.4-0.4,1-0.4,1.4,0s0.4,1,0,1.4L81.6,46l-6.5,6.5c-1.5,1.5-3.6,2.4-5.8,2.4c0,0,0,0-0.1,0
	c-0.6-1.1-1.7-2.7-3.7-4.6s-3.7-3.1-4.6-3.7c0,0,0,0,0-0.1c0.1-2.2,0.9-4.2,2.4-5.8l4.9-4.9c0.4-0.4,1-0.4,1.4,0s0.4,1,0,1.4
	l-3.4,3.4c-0.4,0.4-0.3,0.9,0,1.2c0.4,0.4,0.9,0.3,1.2,0L75.4,33.9z M50.1,62.6c-0.9-0.9-1.9-1.5-2.9-2L59.8,48
	c0.8,0.4,2.5,1.4,4.6,3.5s3.1,3.8,3.5,4.6L55.5,68.3c-0.1-0.2-0.3-0.6-0.6-0.8L50.1,62.6z M43.4,59.7c-0.1-0.1-0.1-0.2-0.1-0.2
	L29.6,45.8l0,0c0.1-0.6,0.2-1.2,0.2-1.9c0.1,0,0.2-0.1,0.2-0.1l13.7-13.7l0,0c0.6,0.1,1.2,0.2,1.9,0.2c0.1,0.1,0.1,0.2,0.1,0.2
	l13.7,13.7c-0.1,0.6-0.2,1.2-0.2,1.9c-0.1,0.1-0.2,0.1-0.2,0.1L45.2,60C44.7,59.8,44,59.7,43.4,59.7z M33.5,21.6
	c0.1,0.2,0.3,0.6,0.6,0.8l0.7,0.7l4.3,4.3c0.9,0.9,1.9,1.5,2.9,2L29.2,42.1c-0.8-0.4-2.5-1.4-4.6-3.5s-3.1-3.8-3.4-4.6L33.5,21.6
	L33.5,21.6z M67.8,34c-0.2,0.1-0.5,0.2-0.7,0.5l-0.7,0.7l-1.6,1.6l-2.7,2.7c-0.9,0.9-1.5,1.9-2,2.9L47.4,29.7
	c0.4-0.8,1.4-2.5,3.5-4.6s3.8-3.1,4.6-3.5L67.8,34L67.8,34z M33.4,12.8c0.4-0.4,1-0.4,1.4,0l5.6,5.6c0.4,0.4,0.9,0.3,1.2,0
	s0.3-0.9,0-1.2L34.5,10c-0.4-0.4-0.4-1,0-1.4s1-0.4,1.4,0l1.5,1.5l5.6,5.6c0.4,0.4,0.9,0.3,1.2,0s0.3-0.9,0-1.2l-5.6-5.6
	c-0.4-0.4-0.4-1,0-1.4s1-0.4,1.4,0l6.1,6.1c0.4,0.4,0.9,0.3,1.2,0s0.3-0.9,0-1.2l-3.8-3.8c-0.4-0.4-0.4-1,0-1.4s1-0.4,1.4,0l0.7,0.7
	l3.8,3.8l2.7,2.7c1.5,1.5,2.4,3.6,2.4,5.8c0,0,0.1,0.1,0,0.1c-1.1,0.6-2.7,1.7-4.6,3.7c-2,2-3.1,3.7-3.7,4.6c0,0,0,0-0.1,0
	c-2.2-0.1-4.2-0.9-5.8-2.4l-4.9-4.9c-0.4-0.4-0.4-1,0-1.4s1-0.4,1.4,0l3.4,3.4c0.4,0.4,0.9,0.3,1.2,0s0.3-0.9,0-1.2l-7.9-7.9
	C33,13.7,33.1,13.1,33.4,12.8z M13.6,56.1c-0.4,0.4-1,0.4-1.4,0s-0.4-1,0-1.4l5.6-5.6c0.4-0.4,0.3-0.9,0-1.2s-0.9-0.3-1.2,0L9.5,55
	c-0.4,0.4-1,0.4-1.4,0s-0.4-1,0-1.4l7.1-7.1c0.4-0.4,0.3-0.9,0-1.2c-0.4-0.4-0.9-0.3-1.2,0l-5.6,5.6c-0.4,0.4-1,0.4-1.4,0
	s-0.4-1,0-1.4l6.1-6.1c0.4-0.4,0.3-0.9,0-1.2c-0.4-0.4-0.9-0.3-1.2,0L8.1,46c-0.4,0.4-1,0.4-1.4,0s-0.4-1,0-1.4l0.7-0.7l6.5-6.5
	c1.5-1.5,3.6-2.4,5.8-2.4c0,0,0.1-0.1,0.1,0c0.6,1.1,1.7,2.7,3.7,4.6c2,2,3.7,3.1,4.6,3.7v0.1c-0.1,2.2-0.9,4.2-2.4,5.8l-4.9,4.9
	c-0.4,0.4-1,0.4-1.4,0s-0.4-1,0-1.4l3.4-3.4c0.4-0.4,0.3-0.9,0-1.2s-0.9-0.3-1.2,0C21.5,48.2,13.6,56.1,13.6,56.1z M21.2,56
	c0.2-0.1,0.5-0.2,0.7-0.5l0.7-0.7l1.6-1.6l2.7-2.7c0.9-0.9,1.5-1.9,2-2.9l12.7,12.7c-0.4,0.8-1.4,2.5-3.5,4.6
	C36,67,34.3,68,33.5,68.3L21.2,56L21.2,56z M55.6,77.2c-0.4,0.4-1,0.4-1.4,0l-5.6-5.6c-0.4-0.4-0.9-0.3-1.2,0s-0.3,0.9,0,1.2
	l7.1,7.2c0.4,0.4,0.4,1,0,1.4s-1,0.4-1.4,0L46,74.3c-0.4-0.4-0.9-0.3-1.2,0s-0.3,0.9,0,1.2l5.6,5.6c0.4,0.4,0.4,1,0,1.4
	s-1,0.4-1.4,0l-6.1-6.1c-0.4-0.4-0.9-0.3-1.2,0s-0.3,0.9,0,1.2l3.8,3.8c0.4,0.4,0.4,1,0,1.4s-1,0.4-1.4,0l-7.2-7.2
	c-1.5-1.5-2.4-3.6-2.4-5.8c0,0,0,0,0-0.1c1.1-0.6,2.7-1.7,4.6-3.7s3.1-3.7,3.7-4.6c0,0,0,0,0.1,0c2.2,0.1,4.2,0.9,5.8,2.4l4.9,4.9
	c0.4,0.4,0.4,1,0,1.4s-1,0.4-1.4,0l-3.4-3.4c-0.4-0.4-0.9-0.3-1.2,0s-0.3,0.9,0,1.2l7.9,7.9C56,76.3,55.9,76.9,55.6,77.2z"/>
</svg>
