<?xml version="1.0" encoding="utf-8"?>
<!-- Generator: Adobe Illustrator 22.0.1, SVG Export Plug-In . SVG Version: 6.00 Build 0)  -->
<svg version="1.1" id="Layer_1" xmlns="http://www.w3.org/2000/svg" xmlns:xlink="http://www.w3.org/1999/xlink" x="0px" y="0px"
	 viewBox="0 0 60.3 53.3" style="enable-background:new 0 0 60.3 53.3;" xml:space="preserve">
<title>New</title>
<path d="M58.3,29.2c0-2.5-2-4.5-4.6-4.5l0,0h-2.4c-0.8,0-1.6,0.3-2.2,0.9l-3,3.1l-3.3-5h-3.5v-3.1c0-4.1-6.3-5.8-9.5-5.8
	s-9.5,1.8-9.5,5.8v3.2h-2.5l-3.3,5l-3-3.1c-0.6-0.6-1.3-0.9-2.1-0.9H6.9c-2.5,0-4.5,2-4.5,4.5v12.2c0,1.4,0.5,2.7,1.4,3.7l-1.4,2.3
	v4.3h56v-4.3l-1.4-2.3c0.9-1,1.4-2.4,1.4-3.7V29.2z M22.3,20.5c0-2.3,4.9-3.8,7.5-3.8s7.5,1.5,7.5,3.8v3.2h-15V20.5z M51.3,36.1
	l-1.7,1.1L56.3,48v1.7h-52V48l6.7-10.8l-1.7-1.1l-4.5,7.2c-0.3-0.6-0.5-1.2-0.5-1.9V29.2c0-1.4,1.1-2.5,2.5-2.5h2.5
	c0.3,0,0.5,0.1,0.7,0.3l5.5,5.7h5.2c0,0.5-0.2,1-0.5,1.4c-0.5,0.5-1.1,0.7-1.7,0.6h-5.4L8.5,30L7,31.4l5.2,5.3h6.2
	c1.2,0.1,2.4-0.4,3.2-1.3c0.8-1.1,1.2-2.5,1.1-3.8l-0.1-0.9h-6.3l-0.5-0.5l3-4.5h22.9l3,4.5l-0.5,0.5H38l-0.1,0.9
	c-0.2,1.4,0.2,2.7,1.1,3.8c0.8,0.9,2,1.4,3.2,1.3h6.2l5.2-5.3L52.2,30l-4.6,4.7h-5.4c-0.6,0.1-1.3-0.2-1.7-0.6
	c-0.3-0.4-0.5-0.9-0.6-1.4h5.2l5.5-5.7c0.2-0.2,0.5-0.3,0.7-0.3h2.5c1.4,0,2.5,1.2,2.5,2.5v12.2c0,0.7-0.2,1.3-0.6,1.9L51.3,36.1z"
	/>
<path d="M51.3,23.7c2.8-0.1,5.1-2.4,5-5.3V17c0-2.8-2.2-5-5-5s-5,2.2-5,5v1.4C46.3,21.2,48.5,23.6,51.3,23.7z M48.3,17
	c0-1.7,1.3-3,3-3s3,1.3,3,3v1.4c0,1.7-1.3,3-3,3s-3-1.3-3-3V17z"/>
<path d="M9.3,23.7c2.8-0.1,5.1-2.4,5-5.3V17c0.1-2.8-2.2-5.2-5-5.3c-2.8,0.1-5.1,2.4-5,5.3v1.4C4.3,21.2,6.5,23.6,9.3,23.7z M6.3,17
	c-0.1-1.7,1.3-3.2,3-3.3c1.7,0.1,3.1,1.6,3,3.3v1.4c0.1,1.7-1.3,3.2-3,3.3c-1.7-0.1-3.1-1.6-3-3.3V17z"/>
<path d="M30.3,13.7c2.8-0.1,5.1-2.4,5-5.3V7c0-2.8-2.2-5-5-5s-5,2.2-5,5v1.4C25.3,11.2,27.5,13.6,30.3,13.7z M27.3,7
	c0-1.7,1.3-3,3-3s3,1.3,3,3v1.4c0,1.7-1.3,3-3,3s-3-1.3-3-3l0,0V7z"/>
</svg>
