<?xml version="1.0" encoding="utf-8"?>
<!-- Generator: Adobe Illustrator 22.0.1, SVG Export Plug-In . SVG Version: 6.00 Build 0)  -->
<svg version="1.1"
	 id="Layer_1" xmlns:cc="http://creativecommons.org/ns#" xmlns:dc="http://purl.org/dc/elements/1.1/" xmlns:inkscape="http://www.inkscape.org/namespaces/inkscape" xmlns:rdf="http://www.w3.org/1999/02/22-rdf-syntax-ns#" xmlns:sodipodi="http://sodipodi.sourceforge.net/DTD/sodipodi-0.dtd" xmlns:svg="http://www.w3.org/2000/svg"
	 xmlns="http://www.w3.org/2000/svg" xmlns:xlink="http://www.w3.org/1999/xlink" x="0px" y="0px" viewBox="0 0 100 68"
	 style="enable-background:new 0 0 100 68;" xml:space="preserve">
<g transform="translate(0,-952.36218)">
	<path d="M50.7,958.5l45,17c0.7,0.3,1.3,1.1,1.3,1.9c0,0.8-0.5,1.6-1.3,1.9l-5.7,2.2v10.8c0.6,0.5,1,1.3,1,2.2c0,1.7-1.3,3-3,3
		s-3-1.3-3-3c0-0.9,0.4-1.7,1-2.2v-9.3l-6,2.3v15.2c0,2-1.3,3.6-2.9,4.9s-3.9,2.5-6.5,3.5c-5.3,2.1-12.5,3.6-20.5,3.6
		s-15.2-1.5-20.5-3.6c-2.7-1-4.9-2.2-6.5-3.5c-1.6-1.3-2.9-2.8-2.9-4.9v-15.2l-15.7-5.9c-0.7-0.3-1.3-1.1-1.3-1.9
		c0-0.8,0.5-1.6,1.3-1.9l45-17C49.8,958.2,50.4,958.4,50.7,958.5z M50,962.5l-39.4,14.9L50,992.2l39.4-14.8L50,962.5z M76,986.7
		l-25.3,9.6c-0.5,0.2-1,0.2-1.4,0L24,986.7v13.7c0,0.1,0.3,0.8,1.4,1.8s3.1,2,5.5,2.9c4.8,1.9,11.6,3.3,19.1,3.3s14.3-1.4,19.1-3.3
		c2.4-0.9,4.3-2,5.5-2.9s1.4-1.7,1.4-1.8L76,986.7z"/>
</g>
</svg>
