<?xml version="1.0" encoding="utf-8"?>
<!-- Generator: Adobe Illustrator 22.0.1, SVG Export Plug-In . SVG Version: 6.00 Build 0)  -->
<svg version="1.1" id="Layer_1" xmlns="http://www.w3.org/2000/svg" xmlns:xlink="http://www.w3.org/1999/xlink" x="0px" y="0px"
	 viewBox="0 0 89.5 90" style="enable-background:new 0 0 89.5 90;" xml:space="preserve">
<style type="text/css">
	.st0{fill:none;stroke:#000000;stroke-width:2;stroke-miterlimit:10;}
	.st1{stroke:#000000;stroke-width:2;stroke-miterlimit:10;}
</style>
<polygon class="st0" points="4.8,44.8 4.8,34.8 14.8,34.8 14.8,24.8 24.8,24.8 24.8,14.8 34.8,14.8 34.8,4.8 54.8,4.8 54.8,14.8 
	64.8,14.8 64.8,24.8 74.8,24.8 74.8,34.8 84.8,34.8 84.8,54.8 74.8,54.8 74.8,64.8 64.8,64.8 64.8,74.8 54.8,74.8 54.8,84.8 
	34.8,84.8 34.8,74.8 24.8,74.8 24.8,64.8 14.8,64.8 14.8,54.8 4.8,54.8 "/>
<polygon class="st0" points="9.8,44.8 9.8,39.8 19.8,39.8 19.8,29.8 29.8,29.8 29.8,19.8 39.8,19.8 39.8,9.8 49.8,9.8 49.8,19.8 
	59.8,19.8 59.8,29.8 69.8,29.8 69.8,39.8 79.8,39.8 79.8,49.8 69.8,49.8 69.8,59.8 59.8,59.8 59.8,69.8 49.8,69.8 49.8,79.8 
	39.8,79.8 39.8,69.8 29.8,69.8 29.8,59.8 19.8,59.8 19.8,49.8 9.8,49.8 "/>
<polygon class="st1" points="24.8,44.8 24.8,34.8 34.8,34.8 34.8,24.8 54.8,24.8 54.8,34.8 64.8,34.8 64.8,54.8 54.8,54.8 
	54.8,64.8 34.8,64.8 34.8,54.8 24.8,54.8 "/>
</svg>
