<?xml version="1.0" encoding="utf-8"?>
<!-- Generator: Adobe Illustrator 22.0.1, SVG Export Plug-In . SVG Version: 6.00 Build 0)  -->
<svg version="1.1" id="Layer_1" xmlns="http://www.w3.org/2000/svg" xmlns:xlink="http://www.w3.org/1999/xlink" x="0px" y="0px"
	 viewBox="0 0 78.2 75" style="enable-background:new 0 0 78.2 75;" xml:space="preserve">
<path d="M38.7,72H76c0-14.1,2-17.6-19.6-23c-4.4,4.9-10.8,8-17.9,8s-13.4-3.1-17.8-8C-0.7,54.4,1,58,1,72H38.7z"/>
<path d="M22,32.2L22,32.2c0,0.4,0,0.6,0,0.8c0,3.3,1,6.3,2.6,8.9c0.6,0.9,1.3,1.8,2.1,2.6c0.9,0.9,1.9,1.7,3,2.4
	c2.3,1.5,5,2.4,7.9,2.5c0.5,1,0.9,1.7,0.9,1.7s0.4-0.7,1-1.7c2.9-0.2,5.6-1.1,7.9-2.6c1.1-0.7,2.1-1.5,3-2.4
	c0.8-0.8,1.5-1.7,2.1-2.6c1.6-2.6,2.6-5.6,2.6-8.8c0-0.1,0-0.4,0-0.7l0,0l0,0c3.6,0,5.2-4.1,5.2-8.2c0-3.2-1.8-5-5.3-5.2
	c0-0.9,0-2,0-2.4c0-8.7-6.9-15-16.5-15S22,7.8,22,16.5c0,0.3,0,1.4,0,2.2c-0.9-0.1-2.2,0-3.3,0.8c-0.9,0.7-1.5,1.7-1.6,3.1
	c-0.3,2.7,0.4,6.5,2.1,8.4C20,31.8,21,32.2,22,32.2z M18.6,22.7c0.1-1,0.4-1.6,1-2c1.2-0.9,3-0.4,3-0.4l1,0.2l-0.1-1
	c0-0.5-0.1-2.4-0.1-3c0-7.8,6.3-13.5,15-13.5s15,5.7,15,13.5c0,0.6,0,2.5-0.1,3l-0.1,0.8H54c3.2,0,4.6,1.1,4.6,3.8
	c0,2.5-0.8,6.8-3.8,6.8l0,0c0-2-0.1-2.3-0.1-2.4l-1.5,0.1c0,0.1,0,0.6,0.1,2.9l0,0c0,0.7,0,1.4,0,1.6c0,3.1-1,6.1-2.6,8.5
	c-0.6,0.9-1.4,1.8-2.3,2.6c-1,0.9-2.1,1.7-3.4,2.3c-1.5,0.7-3.1,1.2-4.7,1.5c0.4-0.7,0.9-1.4,1.4-2.1c0,0,0,0,0-0.1
	c0.9-1.5-1.6-3.3-3.4-3.3c-1.9,0-4.6,2-3.4,3.4l0,0c0.6,0.7,1.1,1.4,1.6,2.1c-1.7-0.2-3.3-0.7-4.8-1.4c-1.1-0.8-2.2-1.6-3.2-2.5
	c-0.8-0.8-1.6-1.6-2.3-2.6c-1.7-2.4-2.7-5.3-2.7-8.5c0-0.2,0-0.6,0-1.2v-0.3l0,0l0,0c0-2.3,0.1-2.8,0.1-2.9l-1.5-0.1
	c0,0.1,0,0.4-0.1,2.4c-0.6,0-1.2-0.3-1.7-0.8C19,28.4,18.4,25.1,18.6,22.7z"/>
<path d="M29.5,31.7h3.6c2.1,0,3.8-1.7,3.8-3.8v-0.6c0-0.9,0.7-1.7,1.6-1.7s1.6,0.7,1.6,1.7v0.6c0,2.1,1.7,3.8,3.8,3.8h3.6
	c2.1,0,3.8-1.7,3.8-3.8v-2.4c0-2.1-1.7-3.8-3.8-3.8h-3.6c-1.8,0-3.3,1.3-3.7,2.9c-0.5-0.3-1.1-0.5-1.7-0.5s-1.2,0.2-1.7,0.5
	c-0.4-1.7-1.9-2.9-3.7-2.9h-3.6c-2.1,0-3.8,1.7-3.8,3.8v2.4C25.7,30,27.4,31.7,29.5,31.7z M41.6,27.3v-1.8c0-1.2,1-2.2,2.2-2.2h3.7
	c1.2,0,2.2,1,2.2,2.2v2.4c0,1.2-1,2.2-2.2,2.2h-3.6c-1.2,0-2.2-1-2.2-2.2v-0.6H41.6z M27.2,25.5c0-1.2,1-2.2,2.2-2.2H33
	c1.2,0,2.2,1,2.2,2.2v1.8v0.6c0,1.2-1,2.2-2.2,2.2h-3.5c-1.2,0-2.2-1-2.2-2.2L27.2,25.5L27.2,25.5z"/>
<path d="M38.4,34.2c-1.4-0.9-7.2,0.1-7.9,4.3c0.4,0.9,5.9,1.7,8.1-0.5c2.4,2.4,7.2,0.7,8.4-0.4C45,35.7,42.4,32.8,38.4,34.2z"/>
</svg>
