<?xml version="1.0" encoding="utf-8"?>
<!-- Generator: Adobe Illustrator 22.0.1, SVG Export Plug-In . SVG Version: 6.00 Build 0)  -->
<svg version="1.1" xmlns="http://www.w3.org/2000/svg" xmlns:xlink="http://www.w3.org/1999/xlink" x="0px" y="0px"
	 viewBox="0 0 100 90.7" style="enable-background:new 0 0 100 90.7;" xml:space="preserve">
<g id="Layer_2">
</g>
<g id="Layer_1">
	<g>
		<path d="M25.1,86.9H4.8c-2,0-3.6-1.6-3.6-3.6V9.9c0-2,1.6-3.6,3.6-3.6h20.3c2,0,3.6,1.6,3.6,3.6v73.4
			C28.8,85.3,27.2,86.9,25.1,86.9z M4.8,8.9c-0.6,0-1,0.5-1,1v73.4c0,0.6,0.5,1,1,1h20.3c0.6,0,1-0.5,1-1V9.9c0-0.6-0.5-1-1-1H4.8z"
			/>
	</g>
	<g>
		<path d="M20.5,41.3h-11c-1.8,0-3.3-1.5-3.3-3.3V17.3c0-1.8,1.5-3.3,3.3-3.3h11c1.8,0,3.3,1.5,3.3,3.3v20.6
			C23.9,39.8,22.4,41.3,20.5,41.3z M9.5,16.6c-0.4,0-0.7,0.3-0.7,0.7v20.6c0,0.4,0.3,0.7,0.7,0.7h11c0.4,0,0.7-0.3,0.7-0.7V17.3
			c0-0.4-0.3-0.7-0.7-0.7H9.5z"/>
	</g>
	<rect x="10.5" y="18.2" width="9" height="5.2"/>
	<g>
		<rect x="10.5" y="25.8" width="9" height="2.6"/>
	</g>
	<g>
		<rect x="10.5" y="30.1" width="9" height="2.6"/>
	</g>
	<g>
		<rect x="10.5" y="34.5" width="9" height="2.6"/>
	</g>
	<g>
		<path d="M15,78c-3.6,0-6.5-2.9-6.5-6.5S11.4,65,15,65s6.5,2.9,6.5,6.5S18.6,78,15,78z M15,67.6c-2.2,0-3.9,1.8-3.9,3.9
			c0,2.2,1.8,3.9,3.9,3.9s3.9-1.8,3.9-3.9C18.9,69.3,17.2,67.6,15,67.6z"/>
	</g>
	<path d="M49.3,14h-11c-1.8,0-3.3,1.5-3.3,3.3v20.6c0,1.8,1.5,3.3,3.3,3.3h11c1.8,0,3.3-1.5,3.3-3.3V17.3C52.6,15.5,51.1,14,49.3,14
		z M50,38c0,0.4-0.3,0.7-0.7,0.7h-11c-0.4,0-0.7-0.3-0.7-0.7V17.3c0-0.4,0.3-0.7,0.7-0.7h11c0.4,0,0.7,0.3,0.7,0.7V38z"/>
	<rect x="39.3" y="18.2" width="9" height="5.2"/>
	<rect x="39.3" y="25.8" width="9" height="2.6"/>
	<rect x="39.3" y="30.1" width="9" height="2.6"/>
	<rect x="39.3" y="34.5" width="9" height="2.6"/>
	<path d="M43.8,65c-3.6,0-6.5,2.9-6.5,6.5s2.9,6.5,6.5,6.5s6.5-2.9,6.5-6.5S47.4,65,43.8,65z M43.8,75.4c-2.2,0-3.9-1.8-3.9-3.9
		c0-2.2,1.8-3.9,3.9-3.9c2.2,0,3.9,1.8,3.9,3.9C47.7,73.7,45.9,75.4,43.8,75.4z"/>
	<path d="M98.7,78.4L83.8,6.6c-0.4-2-2.3-3.2-4.3-2.8L59.6,7.9c-0.9,0.2-1.6,0.7-2.1,1.3c-0.3-1.7-1.8-2.9-3.6-2.9H33.6
		c-2,0-3.6,1.6-3.6,3.6v73.4c0,2,1.6,3.6,3.6,3.6h20.3c2,0,3.6-1.6,3.6-3.6V16l14.1,68c0.4,2,2.3,3.2,4.3,2.8l19.9-4.1
		C97.9,82.3,99.1,80.3,98.7,78.4z M54.9,83.3c0,0.6-0.5,1-1,1H33.6c-0.6,0-1-0.5-1-1V9.9c0-0.6,0.5-1,1-1h20.3c0.6,0,1,0.5,1,1
		C54.9,9.9,54.9,83.3,54.9,83.3z M95.4,80.1l-19.9,4.2c-0.6,0.1-1.1-0.2-1.2-0.8l-15-71.8c-0.1-0.6,0.2-1.1,0.8-1.2L80,6.3
		c0.6-0.1,1.1,0.2,1.2,0.8l14.9,71.8C96.3,79.5,95.9,80,95.4,80.1z"/>
	<path d="M84.7,35l-4.2-20.2c-0.4-1.8-2.1-3-4-2.6l-10.8,2.2c-1.8,0.4-3,2.1-2.6,4l4.2,20.2c0.4,1.8,2.1,3,4,2.6L82.1,39
		C83.9,38.6,85,36.8,84.7,35z M81.5,36.4l-10.8,2.2c-0.4,0.1-0.8-0.2-0.9-0.6l-4.2-20.2c-0.1-0.4,0.2-0.8,0.6-0.9L77,14.8
		c0.4-0.1,0.8,0.2,0.9,0.6l4.2,20.2C82.2,36,81.9,36.3,81.5,36.4z"/>
	<rect x="68" y="17.4" transform="matrix(0.979 -0.2038 0.2038 0.979 -2.5607 15.1934)" width="9" height="5.2"/>
	<rect x="69.3" y="24.9" transform="matrix(0.979 -0.2038 0.2038 0.979 -3.7951 15.5918)" width="9" height="2.6"/>
	<rect x="70.1" y="29.1" transform="matrix(0.979 -0.2038 0.2038 0.979 -4.6385 15.8411)" width="9" height="2.6"/>
	<rect x="71" y="33.4" transform="matrix(0.979 -0.2038 0.2038 0.979 -5.4951 16.1161)" width="9" height="2.6"/>
	<path d="M81.5,63.3C78,64,75.7,67.5,76.4,71c0.7,3.5,4.2,5.8,7.7,5.1s5.8-4.2,5.1-7.7C88.5,64.8,85,62.6,81.5,63.3z M83.6,73.5
		c-2.1,0.4-4.2-0.9-4.6-3s0.9-4.2,3-4.6s4.2,0.9,4.6,3C87.1,71,85.7,73.1,83.6,73.5z"/>
</g>
</svg>
