<?xml version="1.0" encoding="utf-8"?>
<!-- Generator: Adobe Illustrator 22.0.1, SVG Export Plug-In . SVG Version: 6.00 Build 0)  -->
<svg version="1.1" id="Layer_1" xmlns="http://www.w3.org/2000/svg" xmlns:xlink="http://www.w3.org/1999/xlink" x="0px" y="0px"
	 viewBox="0 0 79.3 97.7" style="enable-background:new 0 0 79.3 97.7;" xml:space="preserve">
<path d="M68.1,15.7c-0.4-0.1-0.9-0.1-1.3-0.1c-1.5,0-2.9,0.4-4,1.1c-0.2-0.9-0.6-1.8-1.2-2.6c-1.3-1.8-3.2-3-5.4-3.4
	c-0.5-0.1-1-0.1-1.5-0.1c-1.9,0-3.6,0.6-5,1.7c-1-3-3.6-5.3-6.9-5.9c-3.3-0.6-6.5,0.7-8.5,3.2c-0.1-0.1-0.1-0.2-0.2-0.3
	c-1.3-1.8-3.2-3-5.4-3.4c-2.2-0.4-4.4,0.1-6.2,1.4c-1.8,1.3-3,3.2-3.4,5.4c0,0-3,17.1-3,17.3l-9.1,9.1c-3.8,3.8-3.8,10.1,0,13.9
	c0,0,13.1,13.1,13.2,13.2v26.9c0,0.9,0.8,1.7,1.7,1.7h39.4c0.9,0,1.7-0.7,1.7-1.7V67.4l0.8-0.8c6.3-6.3,8.7-15.3,6.5-23.9
	c0.6-0.9,1-1.9,1.2-3l2.7-15.1C75.1,20.4,72.3,16.4,68.1,15.7z M49.9,18c0.4-2.4,2.5-4.1,4.9-4.1c0.3,0,0.6,0,0.9,0.1
	c1.3,0.2,2.4,1,3.2,2c0.8,1.1,1.1,2.4,0.8,3.7l-2.9,16.7c-0.4,2.4-2.5,4.1-4.9,4.1c-0.3,0-0.6,0-0.9-0.1c-1.3-0.2-2.4-1-3.2-2
	c-0.8-1.1-1-2.4-0.8-3.7L49.9,18z M35.8,14.2c0.5-3,3.4-5.1,6.5-4.5c3,0.5,5.1,3.4,4.5,6.5l-3.2,18.3c-0.3,1.7-1.3,3.1-2.8,3.9
	L33,30.5L35.8,14.2z M22.5,13.2c0.2-1.3,1-2.4,2-3.2c1.1-0.8,2.4-1,3.7-0.8c1.3,0.2,2.4,1,3.2,2c0.8,1.1,1,2.4,0.8,3.7L30,27.8
	c-2.9-2.1-6.7-2.4-9.9-0.9L22.5,13.2z M61.6,64.2l-1.3,1.3c-0.3,0.3-0.5,0.7-0.5,1.2v24.7H23.6V65.3c0-0.5-0.2-1-0.7-1.3
	C22.7,63.8,9.5,50.6,9.5,50.6c-2.5-2.5-2.5-6.6,0-9.2l10.3-10.3c2.5-2.5,6.6-2.5,9.2,0c0,0,13.5,13.5,13.9,13.9
	c1.4,1.3,2.8,2.7,2.8,3.6c0,0.4-0.3,0.9-0.9,1.5c-4.6,4.6-10.2,0.9-19.6-6.2c-0.7-0.6-1.8-0.4-2.3,0.3c-0.6,0.7-0.4,1.8,0.3,2.3
	c6,4.6,11.9,8.9,17.2,8.9c0.3,0,0.5,0,0.8,0c1.7,4.7,1.2,10-1.4,14.4c-0.5,0.8-0.2,1.8,0.6,2.3c0.3,0.2,0.6,0.2,0.9,0.2
	c0.6,0,1.1-0.3,1.4-0.8c3.1-5.2,3.7-11.4,1.8-17c0.9-0.5,1.9-1.2,2.8-2.1c1.3-1.3,1.9-2.5,1.8-3.9c0-2.3-1.9-4.1-3.8-6
	c-0.3-0.3-1.9-1.9-1.9-1.9c0.5-0.3,0.9-0.7,1.3-1.1c0.1,0.3,0.3,0.5,0.5,0.8c1.3,1.8,3.2,3,5.4,3.4c0.5,0.1,1,0.1,1.5,0.1
	c2.1,0,4-0.8,5.5-2.1c0.2,0.3,0.4,0.7,0.6,1c1.2,1.7,2.9,2.8,5,3.2c0.4,0.1,0.9,0.1,1.3,0.1c1.2,0,2.4-0.3,3.5-0.8
	C68.8,52.1,66.6,59.2,61.6,64.2z M71,24l-2.7,15.1c-0.4,2.1-2.2,3.6-4.3,3.6c-0.3,0-0.5,0-0.8-0.1c-1.1-0.2-2.1-0.8-2.8-1.8
	s-0.9-2.1-0.7-3.2l2.7-15.1c0.4-2.1,2.2-3.6,4.3-3.6c0.3,0,0.5,0,0.8,0.1C69.9,19.4,71.4,21.7,71,24z"/>
</svg>
