<?xml version="1.0" encoding="utf-8"?>
<!-- Generator: Adobe Illustrator 22.0.1, SVG Export Plug-In . SVG Version: 6.00 Build 0)  -->
<svg version="1.1" id="Layer_1" xmlns="http://www.w3.org/2000/svg" xmlns:xlink="http://www.w3.org/1999/xlink" x="0px" y="0px"
	 viewBox="0 0 95.5 129" style="enable-background:new 0 0 95.5 129;" xml:space="preserve">
<path d="M68.1,2H13c-5,0-9,4-9,9v106c0,5,4,9,9,9h70c5,0,9-4,9-9V25.9L68.1,2z M68,7.6L86.4,26H73c-2.8,0-5-2.2-5-5V7.6z M88,117
	c0,2.8-2.2,5-5,5H13c-2.8,0-5-2.2-5-5V94h80V117z M88,90H8V11c0-2.8,2.2-5,5-5h51v15c0,5,4,9,9,9h15V90z M14.4,117.7L14.4,117.7
	c1,0.6,2.2,0.2,2.7-0.7l2.9-5l2.9,5c0.6,1,1.8,1.3,2.7,0.7c1-0.6,1.3-1.8,0.7-2.7l-4-7l4-7c0.6-1,0.2-2.2-0.7-2.7
	c-1-0.6-2.2-0.2-2.7,0.7l-2.9,5l-2.9-5c-0.6-1-1.8-1.3-2.7-0.7l0,0c-1,0.6-1.3,1.8-0.7,2.7l4,7l-4,7C13.1,116,13.4,117.2,14.4,117.7
	z M68.4,117.7L68.4,117.7c1,0.6,2.2,0.2,2.7-0.7l2.9-5l2.9,5c0.6,1,1.8,1.3,2.7,0.7c1-0.6,1.3-1.8,0.7-2.7l-4-7l4-7
	c0.6-1,0.2-2.2-0.7-2.7c-1-0.6-2.2-0.2-2.7,0.7l-2.9,5l-2.9-5c-0.6-1-1.8-1.3-2.7-0.7l0,0c-1,0.6-1.3,1.8-0.7,2.7l4,7l-4,7
	C67.1,116,67.4,117.2,68.4,117.7z M54,110h3c1.1,0,2,0.9,2,2s-0.9,2-2,2h-6.9c-1,0-1.9,0.7-2.1,1.7c-0.2,1.3,0.8,2.3,2,2.3h7
	c3.3,0,6-2.7,6-6s-2.7-6-6-6h-3c-1.1,0-2-0.9-2-2s0.9-2,2-2h6.9c1,0,1.9-0.7,2.1-1.7c0.2-1.3-0.8-2.3-2-2.3h-7c-3.3,0-6,2.7-6,6
	S50.7,110,54,110z M34,118h8c1.1,0,2-0.9,2-2s-0.9-2-2-2h-6v-14c0-1.1-0.9-2-2-2s-2,0.9-2,2v16C32,117.1,32.9,118,34,118z M32,38H18
	c-1.1,0-2,0.9-2,2s0.9,2,2,2h14c1.1,0,2-0.9,2-2S33.1,38,32,38z M56,38H41c-1.1,0-2,0.9-2,2s0.9,2,2,2h15c1.1,0,2-0.9,2-2
	S57.1,38,56,38z M62,40c0,1.1,0.9,2,2,2h14c1.1,0,2-0.9,2-2s-0.9-2-2-2H64C62.9,38,62,38.9,62,40z M32,46H18c-1.1,0-2,0.9-2,2
	s0.9,2,2,2h14c1.1,0,2-0.9,2-2S33.1,46,32,46z M56,46H41c-1.1,0-2,0.9-2,2s0.9,2,2,2h15c1.1,0,2-0.9,2-2S57.1,46,56,46z M78,46H64
	c-1.1,0-2,0.9-2,2s0.9,2,2,2h14c1.1,0,2-0.9,2-2S79.1,46,78,46z M32,54H18c-1.1,0-2,0.9-2,2s0.9,2,2,2h14c1.1,0,2-0.9,2-2
	S33.1,54,32,54z M56,54H41c-1.1,0-2,0.9-2,2s0.9,2,2,2h15c1.1,0,2-0.9,2-2S57.1,54,56,54z M78,54H64c-1.1,0-2,0.9-2,2s0.9,2,2,2h14
	c1.1,0,2-0.9,2-2S79.1,54,78,54z M32,62H18c-1.1,0-2,0.9-2,2s0.9,2,2,2h14c1.1,0,2-0.9,2-2S33.1,62,32,62z M56,62H41
	c-1.1,0-2,0.9-2,2s0.9,2,2,2h15c1.1,0,2-0.9,2-2S57.1,62,56,62z M78,62H64c-1.1,0-2,0.9-2,2s0.9,2,2,2h14c1.1,0,2-0.9,2-2
	S79.1,62,78,62z M32,70H18c-1.1,0-2,0.9-2,2s0.9,2,2,2h14c1.1,0,2-0.9,2-2S33.1,70,32,70z M56,70H41c-1.1,0-2,0.9-2,2s0.9,2,2,2h15
	c1.1,0,2-0.9,2-2S57.1,70,56,70z M78,70H64c-1.1,0-2,0.9-2,2s0.9,2,2,2h14c1.1,0,2-0.9,2-2S79.1,70,78,70z"/>
</svg>
