<?xml version="1.0" encoding="utf-8"?>
<!-- Generator: Adobe Illustrator 22.0.1, SVG Export Plug-In . SVG Version: 6.00 Build 0)  -->
<svg version="1.1" id="Layer_1" xmlns="http://www.w3.org/2000/svg" xmlns:xlink="http://www.w3.org/1999/xlink" x="0px" y="0px"
	 viewBox="0 0 20 19.5" style="enable-background:new 0 0 20 19.5;" xml:space="preserve">
<style type="text/css">
	.st0{fill:none;stroke:#000000;stroke-miterlimit:10;}
</style>
<g>
	<path d="M6,5c0.7,0,0.7,1,0,1l0,0C5.3,6,5.3,5,6,5L6,5z"/>
	<g>
		<path d="M13,5h-2.5h-2H8C7.7,5,7.5,5.2,7.5,5.5S7.7,6,8,6h0.5h2H13c0.3,0,0.5-0.2,0.5-0.5S13.3,5,13,5z"/>
		<path d="M8.5,5h2c-0.7,0-0.7-1-0.1-1H11c0.3,0,0.5-0.2,0.5-0.5S11.3,3,11,3H6C5.7,3,5.5,3.2,5.5,3.5S5.7,4,6,4h2.5
			C9.1,4,9.1,5,8.5,5z"/>
		<path d="M14,3h-1c-0.3,0-0.5,0.2-0.5,0.5l0,0C12.5,3.8,12.7,4,13,4h1c0.3,0,0.5-0.2,0.5-0.5l0,0C14.5,3.2,14.3,3,14,3z"/>
	</g>
	<path class="st0" d="M5,11l0.2-3.1c0-0.2,0.2-0.3,0.4-0.3h1.6c0.2,0,0.4,0.1,0.4,0.3L7.7,11"/>
	<path class="st0" d="M15.9,10l-1.8,1.3c-0.2,0.2-0.6,0-0.6-0.3v-0.8c0-0.3-0.4-0.5-0.6-0.3l-1.8,1.3c-0.2,0.2-0.6,0-0.6-0.3V10
		c0-0.3-0.3-0.5-0.6-0.3l-2,1.3H5c-0.3,0-0.5,0.2-0.5,0.5V17c0,0.3,0.2,0.5,0.5,0.5h2.5h2h6.6c0.2,0,0.4-0.2,0.4-0.4v-3.9v-1.1v-0.4
		v-1.5C16.5,9.9,16.1,9.8,15.9,10z"/>
	<rect x="9.5" y="13" width="1" height="1"/>
	<rect x="11.5" y="13" width="1" height="1"/>
	<rect x="13.5" y="13" width="1" height="1"/>
	<rect x="9.5" y="15" width="1" height="1"/>
	<rect x="11.5" y="15" width="1" height="1"/>
	<rect x="13.5" y="15" width="1" height="1"/>
</g>
</svg>
