<?xml version="1.0" encoding="utf-8"?>
<!-- Generator: Adobe Illustrator 22.0.1, SVG Export Plug-In . SVG Version: 6.00 Build 0)  -->
<svg version="1.1"
	 id="Layer_1" xmlns:cc="http://creativecommons.org/ns#" xmlns:dc="http://purl.org/dc/elements/1.1/" xmlns:inkscape="http://www.inkscape.org/namespaces/inkscape" xmlns:rdf="http://www.w3.org/1999/02/22-rdf-syntax-ns#" xmlns:sodipodi="http://sodipodi.sourceforge.net/DTD/sodipodi-0.dtd" xmlns:svg="http://www.w3.org/2000/svg"
	 xmlns="http://www.w3.org/2000/svg" xmlns:xlink="http://www.w3.org/1999/xlink" x="0px" y="0px" viewBox="0 0 32 30.5"
	 style="enable-background:new 0 0 32 30.5;" xml:space="preserve">
<g transform="translate(0,-1020.3622)">
	<path d="M19.8,1023.4c-1,0-1.7,0.8-1.8,1.8l-0.2-0.1l-0.5-0.2l-0.3,0.9l0.5,0.2l0.4,0.2l0,0l0.3,0.2c0.1,0.2,0.2,0.4,0.4,0.5
		c-0.4,0.4-0.6,0.9-0.6,1.5s0.2,1.1,0.6,1.5c-0.4,0.4-0.6,0.9-0.6,1.5s0.2,1.1,0.6,1.5c-0.4,0.4-0.6,0.9-0.6,1.5
		c0,0.4,0.1,0.7,0.3,1.1c-0.3,0-0.5-0.1-0.8-0.1c-0.6,0-1.2,0.1-1.8,0.3c-0.1-0.2-0.3-0.3-0.4-0.3H6.8c-1,0-1.8,0.9-1.8,2
		c0,0.6,0.2,1.1,0.6,1.5c-0.4,0.4-0.6,0.9-0.6,1.5s0.2,1.1,0.6,1.5c-0.2,0.2-0.3,0.4-0.5,0.7l-0.2-0.3l-0.8,0.6l0.3,0.4l0.3,0.3l0,0
		l0,0l0.4,0.4l0,0c0.1,0.3,0.3,0.6,0.5,0.8c-0.4,0.4-0.6,0.9-0.6,1.5c0,1.1,0.7,2,1.8,2h8.5c0.2,0,0.4-0.1,0.4-0.3
		c0.6,0.2,1.2,0.3,1.8,0.3s1.3-0.1,1.8-0.3c0.1,0.2,0.3,0.3,0.4,0.3h8.5c1,0,1.8-0.9,1.8-2c0-0.6-0.2-1.1-0.6-1.5
		c0.4-0.4,0.6-0.9,0.6-1.5s-0.2-1.1-0.6-1.5c0.4-0.4,0.6-0.9,0.6-1.5s-0.2-1.1-0.6-1.5c0.4-0.4,0.6-0.9,0.6-1.5s-0.2-1.1-0.6-1.5
		c0.4-0.4,0.6-0.9,0.6-1.5s-0.2-1.1-0.6-1.5c0.4-0.4,0.6-0.9,0.6-1.5s-0.2-1.1-0.6-1.5c0.4-0.4,0.6-0.9,0.6-1.5s-0.2-1.1-0.6-1.5
		c0.4-0.4,0.6-0.9,0.6-1.5c0-1.1-0.7-2-1.8-2L19.8,1023.4L19.8,1023.4z M19.8,1024.4h8.5c0.4,0,0.8,0.4,0.8,1s-0.4,1-0.8,1h-8.5
		c-0.4,0-0.8-0.4-0.8-1S19.4,1024.4,19.8,1024.4z M13.2,1024.4h-0.5h-0.2l0,0l0,0l-0.8,0.1l-0.5,0.1l0.2,1l0.5-0.1l0.8-0.1h0.1h0.5
		L13.2,1024.4z M14.3,1024.4v1h0.5h0.1l0.8,0.1l0.5,0.1l0.2-1l-0.5-0.1l-0.8-0.1l0,0l0,0h-0.2H14.3z M10.1,1024.9l-0.5,0.2l-0.5,0.2
		l0,0l0,0l-0.5,0.2l-0.5,0.2l0.4,0.9l0.5-0.2l0.4-0.2l0,0l0.4-0.2l0.5-0.2L10.1,1024.9z M7.3,1026.3l-0.4,0.3l-0.6,0.5l0,0l0,0
		l-0.2,0.2l-0.4,0.3l0.7,0.7l0.4-0.3l0.2-0.1l0.6-0.4l0.4-0.3L7.3,1026.3z M19.8,1027.4h8.5c0.4,0,0.8,0.4,0.8,1s-0.4,1-0.8,1h-8.5
		c-0.4,0-0.8-0.4-0.8-1S19.4,1027.4,19.8,1027.4z M4.9,1028.3l-0.3,0.4l-0.6,0.8l0,0l0,0l0,0l-0.3,0.4l0.9,0.5l0.3-0.4l0,0l0.6-0.8
		l0.3-0.4L4.9,1028.3z M19.8,1030.4h8.5c0.4,0,0.8,0.4,0.8,1s-0.4,1-0.8,1h-8.5c-0.4,0-0.8-0.4-0.8-1S19.4,1030.4,19.8,1030.4z
		 M3.2,1030.9l-0.2,0.5l-0.1,0.2l0,0l0,0l-0.3,0.8l-0.2,0.5l0.9,0.3l0.2-0.5l0.3-0.8l0.1-0.1l0.2-0.5L3.2,1030.9z M19.8,1033.4h8.5
		c0.4,0,0.8,0.4,0.8,1s-0.4,1-0.8,1h-8.5c-0.4,0-0.8-0.4-0.8-1S19.4,1033.4,19.8,1033.4z M2.2,1033.9l-0.1,0.5l-0.1,0.5l0,0l0,0v0.5
		v0.5l1,0.1v-0.5v-0.4l0.1-0.5l0.1-0.5L2.2,1033.9z M6.8,1036.4H14c-0.8,0.5-1.5,1.2-2,2H6.8c-0.4,0-0.8-0.4-0.8-1
		S6.4,1036.4,6.8,1036.4z M20.9,1036.4h7.3c0.4,0,0.8,0.4,0.8,1s-0.4,1-0.8,1h-5.3C22.4,1037.6,21.7,1036.9,20.9,1036.4z
		 M17.5,1036.4c3,0,5.5,2.5,5.5,5.5s-2.5,5.5-5.5,5.5c-2,0-3.8-1.1-4.7-2.7c-0.5-0.8-0.7-1.7-0.7-2.8
		C12,1038.8,14.4,1036.4,17.5,1036.4z M3,1036.9l-1,0.2l0.1,0.5l0.1,0.9l0,0l0,0v0.1l0.1,0.5l1-0.3l-0.1-0.5l0,0l-0.1-0.9L3,1036.9z
		 M15,1038.4L15,1038.4L15,1038.4v1h1c0.9,0,1.4,0.4,1.6,1H15v1h2.6c-0.2,0.5-0.6,1-1.6,1h-1v1h0.3l3.1,3l0.7-0.7l-2.4-2.4
		c1.1-0.2,1.8-1,2-1.9H20v-1h-1.4c-0.1-0.4-0.2-0.7-0.5-1H20v-1H15z M6.8,1039.4h4.7c-0.3,0.6-0.4,1.3-0.5,2H6.8
		c-0.4,0-0.8-0.4-0.8-1S6.4,1039.4,6.8,1039.4z M23.5,1039.4h4.8c0.4,0,0.8,0.4,0.8,1s-0.4,1-0.8,1H24
		C23.9,1040.7,23.7,1040,23.5,1039.4z M3.6,1039.7l-0.9,0.3l0.2,0.5l0.1,0.2l0,0l0,0l0.4,0.8l0.2,0.5l0.9-0.4l-0.2-0.5l-0.4-0.7
		v-0.1L3.6,1039.7z M6.8,1042.4H11c0.1,0.7,0.2,1.4,0.5,2H6.8c-0.4,0-0.8-0.4-0.8-1S6.4,1042.4,6.8,1042.4z M24,1042.4h4.3
		c0.4,0,0.8,0.4,0.8,1s-0.4,1-0.8,1h-4.7C23.8,1043.7,23.9,1043.1,24,1042.4z M6.8,1045.4H12c0.5,0.8,1.2,1.5,2,2H6.8
		c-0.4,0-0.8-0.4-0.8-1S6.4,1045.4,6.8,1045.4z M23,1045.4h5.3c0.4,0,0.8,0.4,0.8,1s-0.4,1-0.8,1H21
		C21.7,1046.9,22.4,1046.2,23,1045.4z"/>
</g>
</svg>
