<?xml version="1.0" encoding="utf-8"?>
<!-- Generator: Adobe Illustrator 22.0.1, SVG Export Plug-In . SVG Version: 6.00 Build 0)  -->
<svg version="1.1"
	 id="Layer_1" xmlns:cc="http://creativecommons.org/ns#" xmlns:dc="http://purl.org/dc/elements/1.1/" xmlns:inkscape="http://www.inkscape.org/namespaces/inkscape" xmlns:rdf="http://www.w3.org/1999/02/22-rdf-syntax-ns#" xmlns:sodipodi="http://sodipodi.sourceforge.net/DTD/sodipodi-0.dtd" xmlns:svg="http://www.w3.org/2000/svg"
	 xmlns="http://www.w3.org/2000/svg" xmlns:xlink="http://www.w3.org/1999/xlink" x="0px" y="0px" viewBox="0 0 100 101"
	 style="enable-background:new 0 0 100 101;" xml:space="preserve">
<g transform="translate(0,-952.36218)">
	<path d="M50,954.4c-5.5,0-10,4.5-10,10c0,4.8,3.5,8.8,8,9.8v4.3c-5.1,0.4-9.8,2.5-13.5,5.6l-4.2-4.2c2.6-3.9,2.1-9.2-1.3-12.6
		c-3.9-3.9-10.2-3.9-14.1,0s-3.9,10.2,0,14.1c3.4,3.4,8.7,3.8,12.6,1.3l4.2,4.2c-3.1,3.7-5.2,8.4-5.6,13.5h-4.3c-0.9-4.5-5-8-9.8-8
		c-5.5,0-10,4.5-10,10c0,5.5,4.5,10,10,10c4.8,0,8.8-3.5,9.8-8h4.3c0.4,5.1,2.5,9.8,5.6,13.5l-4.2,4.2c-3.9-2.6-9.2-2.1-12.6,1.3
		c-3.9,3.9-3.9,10.2,0,14.1s10.2,3.9,14.1,0c3.4-3.4,3.8-8.7,1.3-12.6l4.2-4.2c3.7,3.1,8.4,5.2,13.5,5.6v4.3c-4.5,0.9-8,5-8,9.8
		c0,5.5,4.5,10,10,10c5.5,0,10-4.5,10-10c0-4.8-3.5-8.8-8-9.8v-4.3c5.1-0.4,9.8-2.5,13.5-5.6l4.2,4.2c-2.6,3.9-2.1,9.2,1.3,12.6
		c3.9,3.9,10.2,3.9,14.1,0c3.9-3.9,3.9-10.2,0-14.1c-3.4-3.4-8.7-3.8-12.6-1.3l-4.2-4.2c3.1-3.7,5.2-8.4,5.6-13.5h4.3
		c0.9,4.5,5,8,9.8,8c5.5,0,10-4.5,10-10c0-5.5-4.5-10-10-10c-4.8,0-8.8,3.5-9.8,8h-4.3c-0.4-5.1-2.5-9.8-5.6-13.5l4.2-4.2
		c3.9,2.6,9.2,2.1,12.6-1.3c3.9-3.9,3.9-10.2,0-14.1s-10.2-3.9-14.1,0c-3.4,3.4-3.8,8.7-1.3,12.6l-4.2,4.2
		c-3.7-3.1-8.4-5.2-13.5-5.6v-4.3c4.5-0.9,8-5,8-9.8C60,958.9,55.5,954.4,50,954.4z M50,958.4c3.3,0,6,2.7,6,6s-2.7,6-6,6
		s-6-2.7-6-6S46.7,958.4,50,958.4z M22.1,968.3c1.5,0,3,0.6,4.2,1.8c2.4,2.4,2.4,6.1,0,8.5s-6.1,2.4-8.5,0s-2.4-6.1,0-8.5
		c1-1,2.4-1.6,3.7-1.8C21.7,968.3,21.9,968.3,22.1,968.3L22.1,968.3z M78.1,968.3c1.5,0,3,0.6,4.2,1.8c2.4,2.4,2.4,6.1,0,8.5
		s-6.1,2.4-8.5,0s-2.4-6.1,0-8.5c1-1,2.4-1.6,3.7-1.8C77.7,968.3,77.9,968.3,78.1,968.3L78.1,968.3z M50,982.4c11.1,0,20,8.9,20,20
		s-8.9,20-20,20s-20-8.9-20-20S38.9,982.4,50,982.4z M41,988.4c-1.1,0-2,0.9-2,2s0.9,2,2,2h9.8c1.1,0,2.9,1.2,3.8,3H41
		c-1.1,0-2,0.9-2,2c0,1.1,0.9,2,2,2h13.5c-0.8,1.8-2.6,3-3.8,3c-3.3-0.1-6.8,0.1-10,0c-0.8,0.1-1.5,0.6-1.7,1.3
		c-0.2,0.7,0,1.6,0.5,2.1l12,12c0.7,0.8,2.1,0.8,2.8,0c0.7-0.8,0.7-2.1,0-2.8l-8.6-8.6h4.9c3.8,0,7.1-3,8-7H61c1.1,0,2-0.9,2-2
		c0-1.1-0.9-2-2-2h-2.2c-0.2-1.1-0.6-2.1-1.2-3H61c1.1,0,2-0.9,2-2c0-1.1-0.9-2-2-2H50.8L41,988.4L41,988.4z M12,996.4
		c3.3,0,6,2.7,6,6s-2.7,6-6,6s-6-2.7-6-6S8.7,996.4,12,996.4z M88,996.4c3.3,0,6,2.7,6,6s-2.7,6-6,6s-6-2.7-6-6S84.7,996.4,88,996.4
		z M22.1,1024.3c1.5,0,3,0.6,4.2,1.8c2.4,2.4,2.4,6.1,0,8.5s-6.1,2.4-8.5,0s-2.4-6.1,0-8.5c1-1,2.4-1.6,3.7-1.8
		C21.7,1024.3,21.9,1024.3,22.1,1024.3L22.1,1024.3z M78.1,1024.3c1.5,0,3,0.6,4.2,1.8c2.4,2.4,2.4,6.1,0,8.5s-6.1,2.4-8.5,0
		s-2.4-6.1,0-8.5c1-1,2.4-1.6,3.7-1.8C77.7,1024.3,77.9,1024.3,78.1,1024.3L78.1,1024.3z M50,1034.4c3.3,0,6,2.7,6,6s-2.7,6-6,6
		s-6-2.7-6-6S46.7,1034.4,50,1034.4z"/>
</g>
</svg>
