<?xml version="1.0" encoding="utf-8"?>
<!-- Generator: Adobe Illustrator 22.0.1, SVG Export Plug-In . SVG Version: 6.00 Build 0)  -->
<svg version="1.1" id="Layer_1" xmlns="http://www.w3.org/2000/svg" xmlns:xlink="http://www.w3.org/1999/xlink" x="0px" y="0px"
	 viewBox="0 0 100 87.7" style="enable-background:new 0 0 100 87.7;" xml:space="preserve">
<g>
	<path d="M81,48.3c-1-6-5-10-10-14s-11-6-18-6h-1v-9c8-3,7,3,18,0v-11c-8,4-10-3-18,0v-3h-5v23l0,0c-7,1-13,3-18,6c-5,4-9,8-10,14
		c0,0-5-1-5,4h73c0-4-5-4-5-4H81z M5,83.3h90v-3H5V83.3z"/>
	<path d="M95,54.3H81H19H5v25h90V54.3z M14,59.3c1,0,2,0,3,0s1,1,1,1c0,5,0,9,0,14c0,1-1,1-1,1c-1,0-2,0-3,0s-1-1-1-1c0-5,0-9,0-14
		C13,59.3,14,59.3,14,59.3z M82,59.3c1,0,2,0,3,0s1,1,1,1c0,5,0,9,0,14c0,1-1,1-1,1c-1,0-2,0-3,0s-1-1-1-1c0-5,0-9,0-14
		C81,59.3,82,59.3,82,59.3z M65,59.3c1,0,2,0,3,0s1,1,1,1c0,5,0,9,0,14c0,1-1,1-1,1c-1,0-2,0-3,0s-1-1-1-1c0-5,0-9,0-14
		C64,59.3,65,59.3,65,59.3z M48,59.3c1,0,2,0,3,0s1,1,1,1c0,5,0,9,0,14c0,1-1,1-1,1c-1,0-2,0-3,0s-1-1-1-1c0-5,0-9,0-14
		C47,59.3,48,59.3,48,59.3z M31,59.3c1,0,2,0,3,0s1,1,1,1c0,5,0,9,0,14c0,1-1,1-1,1c-1,0-2,0-3,0s-1-1-1-1c0-5,0-9,0-14
		C30,59.3,31,59.3,31,59.3z"/>
</g>
</svg>
