<?xml version="1.0" encoding="utf-8"?>
<!-- Generator: Adobe Illustrator 22.0.1, SVG Export Plug-In . SVG Version: 6.00 Build 0)  -->
<svg version="1.1" id="Layer_1" xmlns="http://www.w3.org/2000/svg" xmlns:xlink="http://www.w3.org/1999/xlink" x="0px" y="0px"
	 viewBox="0 0 68 70.3" style="enable-background:new 0 0 68 70.3;" xml:space="preserve">
<style type="text/css">
	.st0{fill:#010101;}
</style>
<g>
	<g>
		<g>
			<path class="st0" d="M24.1,54.3v2.5c0,0.6,0.4,1,1,1H43c0.6,0,1-0.4,1-1v-2.5c0-3.7-2.9-6.8-6.6-7c1.6-1.1,2.6-2.8,2.6-4.8
				c0-3.2-2.6-5.8-5.9-5.8c-3.2,0-5.9,2.6-5.9,5.8c0,2,1,3.8,2.6,4.8C27.1,47.5,24.1,50.5,24.1,54.3z M34.1,38.6
				c2.1,0,3.9,1.7,3.9,3.8s-1.7,3.8-3.9,3.8c-2.1,0-3.9-1.7-3.9-3.8C30.2,40.3,31.9,38.6,34.1,38.6z M31.1,49.3h5.8c2.8,0,5,2.3,5,5
				v1.5H26.1v-1.5C26.1,51.5,28.3,49.3,31.1,49.3z"/>
		</g>
	</g>
	<g>
		<g>
			<path class="st0" d="M21.9,30.9c0-3.2-2.6-5.8-5.9-5.8c-3.2,0-5.9,2.6-5.9,5.8c0,2,1,3.8,2.6,4.8C9,36,6,39,6,42.8v2.5
				c0,0.6,0.4,1,1,1h17.9c0.6,0,1-0.4,1-1v-2.5c0-3.7-2.9-6.8-6.6-7C20.8,34.7,21.9,33,21.9,30.9z M23.9,42.8v1.5H8v-1.5
				c0-2.8,2.3-5,5-5h5.8C21.6,37.8,23.9,40,23.9,42.8z M16,34.8c-2.1,0-3.9-1.7-3.9-3.8s1.7-3.8,3.9-3.8s3.9,1.7,3.9,3.8
				S18.1,34.8,16,34.8z"/>
		</g>
	</g>
	<g>
		<g>
			<path class="st0" d="M42.1,42.8v2.5c0,0.6,0.4,1,1,1H61c0.6,0,1-0.4,1-1v-2.5c0-3.7-2.9-6.8-6.6-7C57,34.7,58,33,58,30.9
				c0-3.2-2.6-5.8-5.9-5.8c-3.2,0-5.9,2.6-5.9,5.8c0,2,1,3.8,2.6,4.8C45.1,36,42.1,39,42.1,42.8z M52.1,27.1c2.1,0,3.9,1.7,3.9,3.8
				s-1.7,3.8-3.9,3.8c-2.1,0-3.9-1.7-3.9-3.8S50,27.1,52.1,27.1z M49.2,37.8H55c2.8,0,5,2.3,5,5v1.5H44.1v-1.5
				C44.1,40,46.4,37.8,49.2,37.8z"/>
		</g>
	</g>
	<g>
		<g>
			<path class="st0" d="M22.8,24.2v3.7c0,0.6,0.4,1,1,1h20.4c0.6,0,1-0.4,1-1v-3.7c0-3.9-3.2-7-7-7H37c2.2-1.1,3.6-3.3,3.6-5.9
				c0-3.6-2.9-6.5-6.6-6.5c-3.6,0-6.6,2.9-6.6,6.5c0,2.6,1.5,4.8,3.6,5.9h-1.3C25.9,17.1,22.8,20.3,22.8,24.2z M29.5,11.3
				c0-2.5,2-4.5,4.6-4.5c2.5,0,4.6,2,4.6,4.5s-2,4.5-4.6,4.5C31.6,15.8,29.5,13.8,29.5,11.3z M43.2,24.2v2.7H24.8v-2.7
				c0-2.8,2.3-5,5-5h8.4C41,19.1,43.2,21.4,43.2,24.2z"/>
		</g>
	</g>
	<g>
		<g>
			<path class="st0" d="M37.6,1.2c-7.7-0.8-15.3,1-21.7,5.2l1.4-3.6c0.2-0.5-0.1-1.1-0.6-1.3s-1.1,0.1-1.3,0.6l-2.5,6.7
				c-0.1,0.4,0,0.6,0.1,0.9c0.2,0.3,0.5,0.5,0.8,0.5l7.4,0.3c0.5,0,1-0.4,1-1s-0.4-1-1-1l-4.6-0.2C22.8,4.2,30,2.4,37.4,3.2
				c17,1.9,29.3,17.2,27.4,34.2c-0.7,6.8-3.6,13-8.3,18c-0.4,0.4-0.4,1,0,1.4s1,0.4,1.4,0c5-5.3,8.1-11.9,8.9-19.1
				C68.8,19.5,55.7,3.2,37.6,1.2z"/>
		</g>
	</g>
	<g>
		<g>
			<path class="st0" d="M54.9,58.4c-0.2-0.3-0.4-0.4-0.7-0.5l0,0l-6.6-0.5c-0.5,0-1,0.4-1.1,0.9c0,0.6,0.4,1,0.9,1.1l3.9,0.3
				c-6.1,4.1-13.3,5.9-20.6,5.1C13.6,63,1.3,47.6,3.2,30.6c0.7-6.6,3.5-12.8,8-17.6c0.4-0.4,0.4-1-0.1-1.4c-0.4-0.4-1-0.4-1.4,0.1
				C4.9,16.8,2,23.3,1.2,30.4c-2,18.1,11.1,34.4,29.2,36.4c7.8,0.8,15.3-1,21.7-5.2L51,64.8c-0.2,0.5,0.1,1.1,0.6,1.3
				c0.5,0.2,1.1-0.1,1.3-0.6l2.1-6.2C55.1,59,55,58.7,54.9,58.4z"/>
		</g>
	</g>
</g>
</svg>
