<?xml version="1.0" encoding="utf-8"?>
<!-- Generator: Adobe Illustrator 22.0.1, SVG Export Plug-In . SVG Version: 6.00 Build 0)  -->
<svg version="1.1"
	 id="Layer_1" xmlns:cc="http://creativecommons.org/ns#" xmlns:dc="http://purl.org/dc/elements/1.1/" xmlns:inkscape="http://www.inkscape.org/namespaces/inkscape" xmlns:rdf="http://www.w3.org/1999/02/22-rdf-syntax-ns#" xmlns:sodipodi="http://sodipodi.sourceforge.net/DTD/sodipodi-0.dtd" xmlns:svg="http://www.w3.org/2000/svg"
	 xmlns="http://www.w3.org/2000/svg" xmlns:xlink="http://www.w3.org/1999/xlink" x="0px" y="0px" viewBox="0 0 77 60.7"
	 style="enable-background:new 0 0 77 60.7;" xml:space="preserve">
<g transform="translate(0,-952.36218)">
	<path d="M38,953.7c-3.9,0-7,3.1-7,7v3H8c-2.8,0-5,2.2-5,5v36c0,2.8,2.2,5,5,5h60c2.8,0,5-2.2,5-5v-36c0-2.8-2.2-5-5-5H45v-3
		C45,956.8,41.9,953.7,38,953.7z M38,955.7c2.8,0,5,2.2,5,5v8c0,2.8-2.2,5-5,5s-5-2.2-5-5v-8C33,957.9,35.2,955.7,38,955.7z
		 M38,958.7c-1.1,0-2,0.9-2,2c0,1.1,0.9,2,2,2s2-0.9,2-2C40,959.6,39.1,958.7,38,958.7z M8,965.7h23v3c0,3.9,3.1,7,7,7s7-3.1,7-7v-3
		h23c1.7,0,3,1.3,3,3v36c0,1.7-1.3,3-3,3H8c-1.7,0-3-1.3-3-3v-36C5,967,6.3,965.7,8,965.7z M22,974.7c-4.4,0-8,3.6-8,8
		c0,2.3,1,4.4,2.5,5.8c-3.3,2.7-5.9,7.7-6.5,13c-0.1,0.5,0.3,1,0.9,1.1c0,0,0.1,0,0.1,0h22c0.6,0,1-0.4,1-1c0,0,0-0.1,0-0.1
		c-0.7-5.4-3.3-10.4-6.5-13c1.6-1.5,2.5-3.5,2.5-5.8C30,978.3,26.4,974.7,22,974.7z M22,976.7c3.3,0,6,2.7,6,6c0,3.3-2.7,6-6,6
		s-6-2.7-6-6C16,979.4,18.7,976.7,22,976.7z M42.8,981.7c-0.6,0.1-1,0.5-0.9,1.1c0.1,0.6,0.5,1,1.1,0.9h22c0.6,0,1-0.4,1-1
		c0-0.6-0.4-1-1-1c0,0,0,0,0,0H43C42.9,981.7,42.9,981.7,42.8,981.7z M42.8,987.7c-0.6,0.1-1,0.5-0.9,1.1c0.1,0.6,0.5,1,1.1,0.9l0,0
		h22c0.6,0,1-0.4,1-1c0-0.6-0.4-1-1-1c0,0,0,0,0,0H43C42.9,987.7,42.9,987.7,42.8,987.7z M18.3,989.8c1.1,0.6,2.4,0.9,3.8,0.9
		s2.6-0.3,3.8-0.9c2.6,1.9,5.1,6.3,6,10.9H12.3C13.1,996,15.6,991.7,18.3,989.8z M42.8,993.7c-0.6,0.1-1,0.5-0.9,1.1
		c0.1,0.6,0.5,1,1.1,0.9h22c0.6,0,1-0.4,1-1c0-0.6-0.4-1-1-1c0,0,0,0,0,0H43C42.9,993.7,42.9,993.7,42.8,993.7z"/>
</g>
</svg>
