<?xml version="1.0" encoding="utf-8"?>
<!-- Generator: Adobe Illustrator 22.0.1, SVG Export Plug-In . SVG Version: 6.00 Build 0)  -->
<svg version="1.1" id="Layer_1" xmlns="http://www.w3.org/2000/svg" xmlns:xlink="http://www.w3.org/1999/xlink" x="0px" y="0px"
	 viewBox="0 0 89.7 91.7" style="enable-background:new 0 0 89.7 91.7;" xml:space="preserve">
<path d="M35.1,27.8c-1.4,0-2.5-1.1-2.5-2.5s1.1-2.5,2.5-2.5h1.6h7.5h4.5h7.9h1.2c1.4,0,2.5,1.1,2.5,2.5s-1.1,2.5-2.5,2.5h-1.2h-2.4
	H38.6h-1.9H35.1z M16.4,47.8h15.4l0,0h10.5l0,0h15.4c1.4,0,2.5-1.1,2.5-2.5s-1.1-2.5-2.5-2.5h-11h-4.4H32h-5.3H16.4
	c-1.4,0-2.5,1.1-2.5,2.5S15.1,47.8,16.4,47.8z M13.9,35.3c0,1.4,1.1,2.5,2.5,2.5h10.3H33h8.1h5.5h11.1c1.4,0,2.5-1.1,2.5-2.5
	s-1.1-2.5-2.5-2.5H39.1l0,0h-3.9l0,0H16.4C15.1,32.8,13.9,33.9,13.9,35.3z M47.8,57.8c1-1.8,2.2-3.5,3.6-5h-9.8l0,0h-9l0,0H16.4
	c-1.4,0-2.5,1.1-2.5,2.5l0,0c0,1.4,1.1,2.5,2.5,2.5h10.3h7.6h5.6h6.8H47.8z M16.4,67.8h15.9H42h3c0.1-1.7,0.4-3.4,0.8-5h-8.5H37
	H16.4c-1.4,0-2.5,1.1-2.5,2.5C13.9,66.7,15.1,67.8,16.4,67.8z M16.2,77.8h30.2c-0.6-1.6-1.1-3.3-1.3-5H16.2c-1.4,0-2.5,1.1-2.5,2.5
	S14.8,77.8,16.2,77.8z M13.8,88.2h40.4c-1.8-1.4-3.5-3.1-4.8-5H13.8c-3.1,0-5.6-2.5-5.6-5.6V26.1h8.9c5.8,0,10.6-4.8,10.6-10.6V7.4
	h33.2c3.1,0,5.6,2.5,5.6,5.6v5.7v26.7c0.8-0.1,1.6-0.1,2.4-0.1c0.9,0,1.7,0,2.6,0.1v-25v-1.7V13c0-5.9-4.7-10.6-10.6-10.6H26.1
	c-0.6,0-1.2,0.1-1.8,0.3c-0.6,0.2-1.1,0.6-1.5,1L4.6,21.2c-0.5,0.4-0.8,1-1.1,1.6c-0.2,0.5-0.3,1.2-0.3,1.8v53
	C3.2,83.4,7.9,88.2,13.8,88.2z M68.8,50.7c10.3,0,18.6,8.3,18.6,18.6s-8.3,18.6-18.6,18.6s-18.6-8.3-18.6-18.6S58.6,50.7,68.8,50.7z
	 M73.2,77.6c-0.3,0.1-0.6,0.3-0.9,0.4c-0.4,0.1-0.7,0.3-1.1,0.3c-0.5,0.1-0.8-0.2-0.9-0.7c-0.1-0.3-0.1-0.7-0.1-1
	c0.1-0.7,0.2-1.4,0.4-2.2c0.4-2.2,0.8-4.3,1.2-6.5c0.1-0.6,0.2-1.2,0.2-1.8c0-0.7-0.4-1-1.1-1c-1,0-2,0-3,0c-0.9,0-1.9,0-2.8,0
	c-0.2,0-0.5,0-0.7,0.1c-0.4,0.1-0.6,0.3-0.7,0.6c0,0.3,0.1,0.6,0.5,0.8c0.3,0.1,0.7,0.1,1,0.2c0.8,0.1,1,0.4,1,1.2
	c0,0.1,0,0.2,0,0.4c-0.3,1.9-0.7,3.8-1,5.7c-0.2,1.1-0.3,2.2-0.5,3.3c-0.2,1.6,1.3,3.1,2.5,3.3c0.7,0.1,1.5,0.1,2.2,0.1
	c1.6,0,2.9-0.7,4-1.8c0.2-0.2,0.4-0.5,0.4-0.7C74.1,77.8,73.7,77.5,73.2,77.6z M69.6,57.8c-1.7,0-3,1.3-3.1,3c0,1.7,1.3,3.1,3,3.1
	c1.6,0,3-1.4,3-3C72.6,59.1,71.3,57.8,69.6,57.8z"/>
</svg>
