<?xml version="1.0" encoding="utf-8"?>
<!-- Generator: Adobe Illustrator 22.0.1, SVG Export Plug-In . SVG Version: 6.00 Build 0)  -->
<svg version="1.1" id="Layer_1" xmlns="http://www.w3.org/2000/svg" xmlns:xlink="http://www.w3.org/1999/xlink" x="0px" y="0px"
	 viewBox="0 0 88 100" style="enable-background:new 0 0 88 100;" xml:space="preserve">
<g>
	<polygon points="37.9,54.4 23.7,54.4 23.7,76.3 37.9,76.3 	"/>
	<path d="M22,68.7V54.5c-1.4,0.4-2.3,1.6-2.3,3.1v11.1C19.7,70.2,22,70.2,22,68.7z"/>
	<path d="M30,98V78.1h-4.1V98C25.9,100.7,30,100.7,30,98z"/>
	<path d="M35.8,98V78.1h-4.1V98C31.7,100.7,35.8,100.7,35.8,98z"/>
	<path d="M39.7,54.5v14.2c0,1.6,2.3,1.5,2.3,0V57.5C42,56.1,41,54.9,39.7,54.5z"/>
	<path d="M30.8,40.5c3.1,0,5.5,2.5,5.5,5.5s-2.5,5.5-5.5,5.5s-5.5-2.5-5.5-5.5S27.8,40.5,30.8,40.5z"/>
	<path d="M66.1,54.5v14.2c0,1.6,2.3,1.5,2.3,0V57.5C68.4,56.1,67.5,54.9,66.1,54.5z"/>
	<path d="M48.5,68.7V54.5c-1.4,0.4-2.3,1.6-2.3,3.1v11.1C46.1,70.2,48.5,70.2,48.5,68.7z"/>
	<path d="M62.3,98v-9.5h-4.1V98C58.2,100.6,62.3,100.7,62.3,98z"/>
	<path d="M56.4,98v-9.5h-4.1V98C52.3,100.7,56.4,100.7,56.4,98z"/>
	<path d="M64.4,54.4H50.2v32.3c4.7,0,9.4,0,14.2,0V54.4z"/>
	<path d="M53.4,42.2c2.2-2.2,5.7-2.2,7.8,0c2.2,2.2,2.2,5.7,0,7.8c-2.2,2.2-5.7,2.2-7.8,0C51.2,47.8,51.2,44.3,53.4,42.2z"/>
	<path d="M83.8,27.2c-4.4-14.3-18.9-23.1-33.2-25C59.1,8,63.3,23,65,32.5C68,23.6,78.1,20.4,83.8,27.2z M45,1.8c0,11,0,22,0,33.1
		c3.9-7.2,13.2-8.5,18.3-2.1C61.7,23.8,56.1,3,45,1.8z M24,38.8c-0.2,1-1.8,0.9-1.7-0.3c0.4-13.9-15.9-18.9-19.1-5.2
		c-0.2,1-1.8,0.8-1.7-0.3C3.7,12.4,24.8,0,44.1,0C63.4,0,85,12.1,86.7,33c0.1,1.1-1.4,1.3-1.7,0.3c-3.9-13.5-19.1-8.6-19.1,4.7
		c0,1.1-1.4,1.3-1.7,0.3c-3.6-12.6-19.1-9.5-19.2,3.8c0,1.1-1.7,1.1-1.7,0C43.2,28.6,27.1,26,24,38.8z M23.1,32.6
		c1.7-9.5,6-24.5,14.5-30.4C23.6,4.1,9.8,12.7,4.8,26.4C11.1,19.9,20.6,24.9,23.1,32.6z M43.2,1.8C32.1,3,26.5,23.9,24.9,32.8
		c5.2-6.5,14.6-4.9,18.4,2C43.2,23.8,43.2,12.8,43.2,1.8z"/>
</g>
<text transform="matrix(1 0 0 1 -2754.709 2517.918)" style="font-family:'Arial-BoldMT'; font-size:3.4395px;">Created by joni</text>
<text transform="matrix(1 0 0 1 -2754.709 2521.3574)" style="font-family:'Arial-BoldMT'; font-size:3.4395px;">from the Noun Project</text>
</svg>
