<?xml version="1.0" encoding="utf-8"?>
<!-- Generator: Adobe Illustrator 22.0.1, SVG Export Plug-In . SVG Version: 6.00 Build 0)  -->
<svg version="1.1" id="Layer_1" xmlns="http://www.w3.org/2000/svg" xmlns:xlink="http://www.w3.org/1999/xlink" x="0px" y="0px"
	 viewBox="0 0 183.7 87" style="enable-background:new 0 0 183.7 87;" xml:space="preserve">
<style type="text/css">
	.st0{enable-background:new    ;}
	.st1{fill:#005580;}
	.st2{fill:none;stroke:#005580;stroke-width:2.4467;stroke-linecap:round;stroke-miterlimit:10;}
</style>
<g class="st0">
	<path class="st1" d="M59.8,24.3L41.4,40.1l10.1,23.1H36.6l-5.2-14.4l-6,5.2l-1.9,9.2H10.8L21.4,9.8h12.8l-5.5,27.5l15-13H59.8z"/>
	<path class="st1" d="M99.3,27.3c2.4,2.4,3.6,5.4,3.6,9.3c0,1.1-0.1,2.3-0.4,3.6l-4.7,23H85.1L89.3,42c0.1-0.7,0.2-1.3,0.2-1.9
		c0-1.7-0.5-3.1-1.5-4.1s-2.4-1.5-4.2-1.5c-2.2,0-4.1,0.8-5.8,2.4c-1.7,1.6-2.8,3.7-3.3,6.3l-4,19.8H58L68.5,9.8h12.9l-3.9,19.7
		c3.1-3.8,7.1-5.7,12-5.7C93.6,23.7,96.9,24.9,99.3,27.3z"/>
</g>
<g>
	<path class="st1" d="M145.2,67.5c1.4,0,2.7-0.5,3.7-1.5s1.7-2.3,2-3.9l7.6-37.9h12.8l-8.2,40.9c-0.8,4-2.5,7.1-5.3,9.3
		c-2.7,2.2-6.1,3.2-10.2,3.2c-3,0-5.8-0.6-8.4-1.7l3.6-8.8C143.6,67.4,144.4,67.5,145.2,67.5z M172,7.9c1,1,1.5,2.4,1.5,4.1
		c0,2.3-0.8,4.2-2.4,5.7c-1.6,1.6-3.6,2.3-5.9,2.3c-1.7,0-3-0.5-4-1.5s-1.5-2.4-1.5-4.1c0-2.3,0.8-4.2,2.4-5.7
		c1.6-1.6,3.5-2.3,5.8-2.3C169.6,6.3,171,6.8,172,7.9z"/>
</g>
<g>
	<path class="st1" d="M107.9,81.3l11.5-18c9.6,4.4,21.3,1.1,27.2-8c6.5-10.1,3.5-23.5-6.5-30c-10.1-6.5-23.5-3.5-30,6.5
		c-5.9,9.2-3.9,21.1,4,28l-11.5,18c-0.9,1.5-0.5,3.4,0.9,4.3C105,83.2,107,82.8,107.9,81.3z M113.6,34.2c5.2-8.1,16-10.5,24.2-5.3
		c8.1,5.2,10.5,16,5.3,24.2c-5.2,8.1-16,10.5-24.2,5.3S108.4,42.3,113.6,34.2z"/>
	<path class="st2" d="M125.3,30.5c7.2-1.6,14.3,3,15.8,10.2"/>
</g>
</svg>
