<?xml version="1.0" encoding="utf-8"?>
<!-- Generator: Adobe Illustrator 22.0.1, SVG Export Plug-In . SVG Version: 6.00 Build 0)  -->
<svg version="1.1" id="Layer_1" xmlns="http://www.w3.org/2000/svg" xmlns:xlink="http://www.w3.org/1999/xlink" x="0px" y="0px"
	 viewBox="0 0 263 95.7" style="enable-background:new 0 0 263 95.7;" xml:space="preserve">
<style type="text/css">
	.st0{enable-background:new    ;}
	.st1{fill:#007877;}
	.st2{fill:none;}
	.st3{display:none;enable-background:new    ;}
	.st4{font-family:'GeometosRounded';}
	.st5{font-size:12px;}
</style>
<g class="st0">
	<path class="st1" d="M127.6,61.9l-8.2-14.7l-4,4.1v10.6h-12.8V8.4h12.8V36l12.5-13.2h14.5l-14.3,15l14.5,23.9h-15V61.9z"/>
	<path class="st1" d="M184.3,26.4c2.6,2.7,3.9,6.3,3.9,10.9v24.6h-12.8V41c0-2.2-0.6-3.9-1.8-5.2s-2.8-1.9-4.9-1.9
		c-2.4,0-4.2,0.9-5.6,2.5c-1.4,1.6-2.1,3.7-2.1,6.3v19.2h-12.8V8.4H161v20.8c1.4-2.3,3.2-4,5.4-5.1c2.2-1.2,4.7-1.7,7.5-1.7
		C178.2,22.4,181.7,23.8,184.3,26.4z"/>
	<path class="st1" d="M226,25c3.2,1.7,5.7,4,7.5,7s2.7,6.5,2.7,10.4c0,4-0.9,7.5-2.7,10.5s-4.3,5.3-7.5,7s-6.9,2.5-11.2,2.5
		c-4.2,0-7.9-0.8-11.2-2.5c-3.2-1.7-5.7-4-7.5-7s-2.6-6.5-2.6-10.5c0-3.9,0.9-7.4,2.6-10.4c1.8-3,4.2-5.3,7.5-7
		c3.2-1.7,6.9-2.5,11.2-2.5C219,22.5,222.8,23.3,226,25z M208.8,35.5c-1.5,1.8-2.3,4.1-2.3,7s0.8,5.3,2.3,7.1s3.6,2.7,6,2.7
		c2.5,0,4.6-0.9,6.1-2.7s2.3-4.1,2.3-7.1c0-2.9-0.8-5.2-2.3-7c-1.6-1.8-3.6-2.7-6.1-2.7C212.3,32.9,210.3,33.7,208.8,35.5z"/>
	<path class="st1" d="M238.9,66.2c1.2,0,2.2-0.4,2.9-1.2c0.7-0.8,1-2,1-3.6V22.9h12.8v40.4c0,4-1.2,7.2-3.7,9.5s-5.8,3.5-10,3.5
		c-3,0-5.9-0.5-8.6-1.5l2.5-9.1C237,66,238.1,66.2,238.9,66.2z M253.9,6.9c1.3,1.3,1.9,2.9,1.9,4.9s-0.6,3.6-1.9,4.9
		c-1.3,1.3-2.9,1.9-4.9,1.9s-3.6-0.6-4.9-1.9c-1.3-1.3-1.9-2.9-1.9-4.9s0.6-3.7,1.9-4.9C245.4,5.6,247,5,249,5S252.6,5.6,253.9,6.9z
		"/>
</g>
<rect x="101.4" y="90.8" class="st2" width="204.7" height="16"/>
<text transform="matrix(1 0 0 1 101.4343 99.623)" class="st3 st4 st5">INFORM   EMPOWER   DEVELOP</text>
<path class="st1" d="M65.1,73.6l5.5-5.5L59.5,56.4c1.6-2.6,2.7-5.7,2.7-8.9c0-9.2-7.5-16.7-16.7-16.7c-9.3,0-16.7,7.5-16.7,16.7
	s7.4,16.6,16.7,16.6c3,0,5.9-0.8,8.3-2.2L65.1,73.6z M45.5,57.5c-5.6,0-10-4.4-10-9.9c0-5.7,4.4-10.1,10-10.1s10,4.4,10,10.1
	C55.5,53.1,51,57.5,45.5,57.5z M12.1,87.5c-3.3,0-3.3,0-3.3-3.3V10.8c0-3.3,0-3.3,3.3-3.3h73.3c3.3,0,3.3,0,3.3,3.3v73.3
	c0,3.3,0,3.3-3.3,3.3L12.1,87.5L12.1,87.5z M18.8,20.8c1.9,0,3.3-1.5,3.3-3.3s-1.5-3.3-3.3-3.3s-3.3,1.5-3.3,3.3
	C15.5,19.3,16.9,20.8,18.8,20.8z M28.8,20.8c1.9,0,3.3-1.5,3.3-3.3s-1.4-3.3-3.3-3.3s-3.3,1.5-3.3,3.3S27,20.8,28.8,20.8z
	 M38.8,20.8c1.9,0,3.3-1.5,3.3-3.3s-1.5-3.3-3.3-3.3s-3.3,1.5-3.3,3.3S36.9,20.8,38.8,20.8z"/>
</svg>
