<?xml version="1.0" encoding="utf-8"?>
<!-- Generator: Adobe Illustrator 22.0.1, SVG Export Plug-In . SVG Version: 6.00 Build 0)  -->
<svg version="1.1" id="Layer_1" xmlns="http://www.w3.org/2000/svg" xmlns:xlink="http://www.w3.org/1999/xlink" x="0px" y="0px"
	 viewBox="0 0 92.7 91.7" style="enable-background:new 0 0 92.7 91.7;" xml:space="preserve">
<path d="M25.3,35.7c0.3,1.7,0.9,3.2,1.9,4.2c0.1,1.8,1.4,19.5,18.4,19.5c17.2,0,18.2-17.6,18.4-19.5c1-1.1,1.6-2.9,1.7-4.4
	c0.2-1.9-0.1-3.7-0.9-5.1c1.8-2.5,5.8-9.7,1.2-17.8c-3.5-6.3-8.2-9.4-14-9.4c-5.5,0-10.3,3-12.2,4.4C38.6,7,36.5,6.1,34,6.1
	c-3.1,0-7.4,1.3-10.3,7.7c-3.7,8,0.5,14.6,2.4,16.9C25.3,32.2,25.1,33.9,25.3,35.7z M48.2,47h-5.1c-0.5,0-0.9-0.4-0.9-0.9
	s0.4-0.9,0.9-0.9h5.1c0.5,0,0.9,0.4,0.9,0.9S48.7,47,48.2,47z M28.9,31.9c2.3-3,4.1-8.4,4.7-11.6c2,1.7,5.5,4.1,12.1,3.9
	c5.8-0.2,9.6-3.9,11-5.4c1.1,6.4,4.6,12.3,5,12.6c0.7,0.8,1.1,2.2,0.9,3.8c-0.2,1.5-0.2,2.8-1,2.8c-0.3,0-3.4,6.4-4.1,6.4
	c0,0,0,0,0,0c-0.4,0-5-6.6-7.9-6.6c-0.7,0-1,2.1-4,2.1c-2.9,0-3.2-2.1-4-2.1c-3.3,0-7.7,6.6-8,6.6c0,0,0,0,0,0
	c-0.9,0-3.8-6.4-4.1-6.4c-0.9,0-1-1.3-1.2-2.7C28.2,34.5,28.1,33.1,28.9,31.9z M90.1,87.3c0,0.8-0.7,1.5-1.5,1.5c0,0,0,0,0,0H2.7
	c-0.5,0-0.9-0.2-1.2-0.6c-0.3-0.4-0.4-0.8-0.3-1.3c1.2-5,4.3-23.9,6.1-25.7c0.6-0.6,2.3-1.2,11.2-4.4c3.4-1.2,8-2.5,10.8-3.6
	c3.7,5.3,9.3,8.6,16.2,8.6c7.1,0,12.9-3.5,16.5-9c7.7,2.5,20.9,6.8,22.6,8.2C86.6,62.8,90.1,87.1,90.1,87.3z"/>
</svg>
