<?xml version="1.0" encoding="utf-8"?>
<!-- Generator: Adobe Illustrator 22.0.1, SVG Export Plug-In . SVG Version: 6.00 Build 0)  -->
<svg version="1.1" id="Layer_1" xmlns="http://www.w3.org/2000/svg" xmlns:xlink="http://www.w3.org/1999/xlink" x="0px" y="0px"
	 viewBox="0 0 100 99.5" style="enable-background:new 0 0 100 99.5;" xml:space="preserve">
<g>
	<path d="M60.5,5C41.5,5,26,20.5,26,39.5c0,8.8,3.3,16.8,8.7,22.9l-4.2,4.2c-2.7-1.6-6.1-1.6-8.8,0.1c-0.5,0.3-0.9,0.7-1.4,1.1
		l-1.8,1.8c-0.8,0.8-0.8,2,0,2.8c0.4,0.4,0.9,0.6,1.4,0.6c0.5,0,1-0.2,1.4-0.6l1.8-1.8c0.2-0.2,0.5-0.4,0.7-0.6
		c1.7-1.1,3.9-0.8,5.3,0.6c0,0,0,0,0.1,0.1c0,0,0,0,0,0c1.6,1.7,1.6,4.3-0.1,6l-13,13c-1.7,1.7-4.4,1.7-6,0c-1.7-1.7-1.7-4.4,0-6
		l7.4-7.4c0.8-0.8,0.8-2,0-2.8c-0.8-0.8-2-0.8-2.8,0l-7.4,7.4c-3.2,3.2-3.2,8.5,0,11.7c1.6,1.6,3.7,2.4,5.9,2.4
		c2.1,0,4.2-0.8,5.9-2.4l13-13c2.7-2.7,3.1-6.9,1.3-10.1l4.2-4.2c6.1,5.4,14.1,8.7,22.9,8.7C79.5,74,95,58.5,95,39.5S79.5,5,60.5,5z
		 M60.5,70C43.7,70,30,56.3,30,39.5C30,22.7,43.7,9,60.5,9C77.3,9,91,22.7,91,39.5S77.3,70,60.5,70z"/>
	<path d="M39.8,30.9c0.7-1.6,1.5-3.1,2.5-4.5c0.6-0.9,0.4-2.1-0.4-2.8c-0.9-0.6-2.1-0.4-2.8,0.4c-1.2,1.7-2.2,3.4-3,5.3
		c-0.4,1,0.1,2.2,1.1,2.6c0.3,0.1,0.5,0.2,0.8,0.2C38.7,32.1,39.4,31.6,39.8,30.9z"/>
	<path d="M45.4,22.3c0.4,0,0.9-0.1,1.2-0.4c4-3.2,8.8-4.8,13.9-4.8c1.1,0,2-0.9,2-2s-0.9-2-2-2c-6,0-11.7,2-16.4,5.7
		c-0.9,0.7-1,1.9-0.3,2.8C44.2,22,44.8,22.3,45.4,22.3z"/>
	<path d="M53.2,39.2c0,4.1,3.3,7.4,7.4,7.4s7.4-3.3,7.4-7.4s-3.3-7.4-7.4-7.4S53.2,35.1,53.2,39.2z M63.9,39.2
		c0,1.9-1.5,3.4-3.4,3.4s-3.4-1.5-3.4-3.4s1.5-3.4,3.4-3.4S63.9,37.3,63.9,39.2z"/>
	<path d="M53.1,51.3c-1-0.3-2.1,0.4-2.4,1.4c-1.1-0.5-2.3-0.8-3.6-0.8h-3.7c-1.9,0-3.7,0.7-5.2,1.9c-0.9,0.7-1,2-0.3,2.8
		c0.7,0.9,2,1,2.8,0.3c0.8-0.6,1.7-1,2.7-1h3.7c1.3,0,2.5,0.6,3.3,1.6v7c0,1.1,0.9,2,2,2s2-0.9,2-2v-9.7c0-0.3,0-0.7,0.1-1
		C54.9,52.7,54.2,51.6,53.1,51.3z"/>
	<path d="M68.6,60.4c-1.1,0-2,0.9-2,2v2.1c0,1.1,0.9,2,2,2s2-0.9,2-2v-2.1C70.6,61.3,69.7,60.4,68.6,60.4z"/>
	<path d="M75.7,36.4c-4.1,0-7.4,3.3-7.4,7.4s3.3,7.4,7.4,7.4s7.4-3.3,7.4-7.4S79.8,36.4,75.7,36.4z M75.7,47.1
		c-1.9,0-3.4-1.5-3.4-3.4s1.5-3.4,3.4-3.4s3.4,1.5,3.4,3.4S77.6,47.1,75.7,47.1z"/>
	<path d="M73.9,51.1c-1.3,0-2.6,0.3-3.8,0.9c-1.1-3.2-4.2-5.5-7.7-5.5h-3.7c-1.3,0-2.7,0.3-3.9,1c-1,0.5-1.3,1.7-0.8,2.7
		c0.5,1,1.7,1.3,2.7,0.8c0.6-0.3,1.3-0.5,2-0.5h3.7c2.3,0,4.2,1.9,4.2,4.2v2.6c0,1.1,0.9,2,2,2s2-0.9,2-2v-0.7c0.8-1,2-1.6,3.3-1.6
		h3.7c1.1,0,2.1,0.4,2.9,1.1c0.8,0.8,2.1,0.7,2.8-0.1s0.7-2.1-0.1-2.8c-1.5-1.4-3.5-2.2-5.6-2.2L73.9,51.1L73.9,51.1z"/>
	<path d="M38,44.5c0,4.1,3.3,7.4,7.4,7.4s7.4-3.3,7.4-7.4s-3.3-7.4-7.4-7.4S38,40.5,38,44.5z M48.7,44.5c0,1.9-1.5,3.4-3.4,3.4
		S42,46.4,42,44.5s1.5-3.4,3.4-3.4S48.7,42.7,48.7,44.5z"/>
</g>
</svg>
