<?xml version="1.0" encoding="utf-8"?>
<!-- Generator: Adobe Illustrator 22.0.1, SVG Export Plug-In . SVG Version: 6.00 Build 0)  -->
<svg version="1.1" id="Layer_1" xmlns="http://www.w3.org/2000/svg" xmlns:xlink="http://www.w3.org/1999/xlink" x="0px" y="0px"
	 viewBox="0 0 100 74" style="enable-background:new 0 0 100 74;" xml:space="preserve">
<path d="M85.7,51.6l-6.3,0l0-6.5c0-1.5-1.2-2.7-2.7-2.7c-0.7,0-1.4,0.3-1.9,0.8c-0.5,0.5-0.8,1.2-0.8,1.9l0,6.4l-6.4,0
	c-0.7,0-1.4,0.3-1.9,0.8c-0.5,0.5-0.8,1.2-0.8,1.9c0,1.5,1.2,2.7,2.7,2.7l6.5,0l0,6.3c0,1.5,1.2,2.7,2.7,2.7h0
	c0.7,0,1.4-0.3,1.9-0.8c0.5-0.5,0.8-1.2,0.8-1.9l0-6.2l6.2,0c0.7,0,1.4-0.3,1.9-0.8c0.5-0.5,0.8-1.2,0.8-1.9
	C88.4,52.8,87.2,51.6,85.7,51.6z M60.8,56.2H31.6c0-0.8,0.1-1.6,0.2-2.3c0.2-1.3,0.5-2.6,0.9-3.8c0.7-1.9,1.6-3.7,2.9-5.2
	c0.8-1.1,1.8-2,2.8-2.9c3.2-2.6,7.3-4.2,11.7-4.2s8.5,1.6,11.7,4.2c1,0.9,2,1.8,2.8,2.9c0.6,0.8,1.1,1.6,1.6,2.4
	c0.5-0.1,1.1-0.2,1.7-0.2l1.9,0l0-1.2c-0.8-1.6-1.8-3-3-4.4c2.4-2.9,6.1-4.7,10.2-4.7c6.8,0,12.4,5.1,13.2,11.8
	c1.4,1,2.4,2.5,2.8,4.2c0.7-0.7,1.1-1.6,1.1-2.6c0-6.8-4-12.6-9.7-15.4c2.5-2.1,4.1-5.3,4.1-8.8c0-6.4-5.2-11.5-11.5-11.5
	c-6.3,0-11.5,5.2-11.5,11.5c0,3.5,1.6,6.7,4.1,8.8c-2.1,1-4,2.5-5.5,4.2c-2-1.6-4.2-2.8-6.6-3.7c4.3-2.5,7.2-7.2,7.2-12.5
	c0-8-6.5-14.5-14.5-14.5s-14.5,6.5-14.5,14.5c0,5.3,2.9,10,7.2,12.5c-2.4,0.8-4.6,2.1-6.6,3.7c-1.5-1.8-3.4-3.2-5.5-4.2
	c2.5-2.1,4.1-5.3,4.1-8.8c0-6.4-5.2-11.5-11.5-11.5s-11.5,5.2-11.5,11.5c0,3.5,1.6,6.7,4.1,8.8c-5.7,2.8-9.7,8.6-9.7,15.4
	c0,2.1,1.7,3.8,3.8,3.8h18c-0.1,0.8-0.1,1.6-0.1,2.4c0,2.1,1.7,3.8,3.8,3.8h31.8C62.2,59,61.2,57.7,60.8,56.2z M69,25.8
	c0-4.3,3.5-7.7,7.7-7.7c4.3,0,7.7,3.5,7.7,7.7c0,4.3-3.5,7.7-7.7,7.7C72.5,33.5,69,30.1,69,25.8z M39.3,22.6
	c0-5.9,4.8-10.7,10.7-10.7c5.9,0,10.7,4.8,10.7,10.7c0,5.9-4.8,10.7-10.7,10.7C44.1,33.4,39.3,28.6,39.3,22.6z M15.5,25.8
	c0-4.3,3.5-7.7,7.7-7.7c4.3,0,7.7,3.5,7.7,7.7c0,4.3-3.5,7.7-7.7,7.7C19,33.5,15.5,30.1,15.5,25.8z M28.7,50H10
	c0-7.3,6-13.3,13.3-13.3c4.1,0,7.7,1.8,10.2,4.7C31.3,43.9,29.6,46.8,28.7,50z"/>
</svg>
