<?xml version="1.0" encoding="utf-8"?>
<!-- Generator: Adobe Illustrator 22.0.1, SVG Export Plug-In . SVG Version: 6.00 Build 0)  -->
<svg version="1.1" id="Layer_1" xmlns="http://www.w3.org/2000/svg" xmlns:xlink="http://www.w3.org/1999/xlink" x="0px" y="0px"
	 viewBox="0 0 35.3 64" style="enable-background:new 0 0 35.3 64;" xml:space="preserve">
<style type="text/css">
	.st0{fill:#FFFFFF;}
</style>
<title>Artboard 1 Copy 103</title>
<desc>Created with Sketch.</desc>
<g>
	<g>
		<path class="st0" d="M8.7,17.3L8.7,17.3v18c0,5.5,4.5,10,10,10s10-4.5,10-10v-18c0-5.5-4.5-10-10-10C13.1,7.3,8.7,11.8,8.7,17.3
			L8.7,17.3z M6.7,17.3c0-6.6,5.4-12,12-12s12,5.4,12,12v18c0,6.6-5.4,12-12,12s-12-5.4-12-12L6.7,17.3L6.7,17.3z"/>
		<path class="st0" d="M17.7,12.3v4c0,0.6,0.4,1,1,1s1-0.4,1-1v-4c0-0.6-0.4-1-1-1S17.7,11.8,17.7,12.3L17.7,12.3z"/>
		<path class="st0" d="M18.7,58.3l5.5-5.5c0.4-0.4,1-0.4,1.4,0s0.4,1,0,1.4l-6.2,6.2c-0.2,0.2-0.5,0.3-0.7,0.3s-0.5-0.1-0.7-0.3
			l-6.3-6.3c-0.4-0.4-0.4-1,0-1.4s1-0.4,1.4,0L18.7,58.3z"/>
	</g>
</g>
</svg>
