<?xml version="1.0" encoding="utf-8"?>
<!-- Generator: Adobe Illustrator 22.0.1, SVG Export Plug-In . SVG Version: 6.00 Build 0)  -->
<svg version="1.1" id="Layer_1" xmlns="http://www.w3.org/2000/svg" xmlns:xlink="http://www.w3.org/1999/xlink" x="0px" y="0px"
	 viewBox="0 0 100 66.3" style="enable-background:new 0 0 100 66.3;" xml:space="preserve">
<g>
	<circle cx="12.3" cy="20.2" r="4.3"/>
	<path d="M16,56V41.5c0-0.1,0-0.1,0-0.2h0.7c1.5,0,2.8-1.3,2.8-2.8l0,0V28.5c0-1.5-1.2-2.8-2.8-2.8H7.8c-1.5,0-2.8,1.2-2.8,2.8v10.1
		c0,1.5,1.2,2.8,2.8,2.8h0.7c0,0.1,0,0.1,0,0.2V56c0,1.2,1,2.2,2.1,2.2h3.3C15.1,58.2,16,57.2,16,56z"/>
	<circle cx="31.1" cy="20.2" r="4.3"/>
	<path d="M34.9,56V41.5c0-0.1,0-0.1,0-0.2h0.7c1.5,0,2.8-1.3,2.8-2.8l0,0V28.5c0-1.5-1.2-2.8-2.8-2.8h-8.9c-1.5,0-2.8,1.2-2.8,2.8
		v10.1c0,1.5,1.2,2.8,2.8,2.8h0.7c0,0.1,0,0.1,0,0.2V56c0,1.2,1,2.2,2.1,2.2h3.3C34,58.2,34.9,57.2,34.9,56z"/>
	<circle cx="50" cy="20.2" r="4.3"/>
	<path d="M53.8,56V41.5c0-0.1,0-0.1,0-0.2h0.7c1.5,0,2.8-1.3,2.8-2.8l0,0V28.5c0-1.5-1.2-2.8-2.8-2.8h-8.9c-1.5,0-2.8,1.2-2.8,2.8
		v10.1c0,1.5,1.2,2.8,2.8,2.8h0.7c0,0.1,0,0.1,0,0.2V56c0,1.2,1,2.2,2.2,2.2h3.3C52.8,58.2,53.8,57.2,53.8,56z"/>
	<circle cx="68.9" cy="20.2" r="4.3"/>
	<path d="M72.7,56V41.5c0-0.1,0-0.1,0-0.2h0.7c1.5,0,2.8-1.3,2.8-2.8h0V28.5c0-1.5-1.2-2.8-2.8-2.8h-8.9c-1.5,0-2.8,1.2-2.8,2.8
		v10.1c0,1.5,1.2,2.8,2.8,2.8h0.7c0,0.1,0,0.1,0,0.2V56c0,1.2,1,2.2,2.2,2.2h3.3C71.7,58.2,72.7,57.2,72.7,56z"/>
	<circle cx="87.8" cy="20.2" r="4.3"/>
	<path d="M92.2,25.7h-8.9c-1.5,0-2.8,1.2-2.8,2.8v10.1c0,1.5,1.2,2.8,2.8,2.8H84c0,0.1,0,0.1,0,0.2V56c0,1.2,1,2.1,2.1,2.1h3.3
		c1.2,0,2.2-1,2.2-2.1V41.5c0-0.1,0-0.1,0-0.2h0.7c1.5,0,2.8-1.3,2.8-2.8l0,0V28.5C95,26.9,93.8,25.7,92.2,25.7z"/>
	<circle cx="21.7" cy="11.5" r="4.3"/>
	<circle cx="40.6" cy="11.5" r="4.3"/>
	<circle cx="59.4" cy="11.5" r="4.3"/>
	<circle cx="78.3" cy="11.5" r="4.3"/>
</g>
</svg>
