<?xml version="1.0" encoding="utf-8"?>
<!-- Generator: Adobe Illustrator 22.0.1, SVG Export Plug-In . SVG Version: 6.00 Build 0)  -->
<svg version="1.1" id="Layer_1" xmlns="http://www.w3.org/2000/svg" xmlns:xlink="http://www.w3.org/1999/xlink" x="0px" y="0px"
	 viewBox="0 0 100 101" style="enable-background:new 0 0 100 101;" xml:space="preserve">
<g>
	<path d="M92.9,39.8c-0.5-4.4-4.7-9-4.9-9.2c-1.1-1.2-2.5-2.2-4-2.9l-1.2-0.6c-1.1-0.5-2.3-0.8-3.5-0.8c-0.8,0-1.7,0.1-2.5,0.4
		c-1.9,0.6-3.4,2-4.2,3.7L69,38.1c-0.9,2-1,4.2-0.2,6.3s2.4,3.7,4.4,4.7C75,50,77,50.4,79,50.4c0.2,0,0.4,0,0.6,0
		c0.6,2.7,0.8,7.7-2.4,14.5c-3.4,7.1-7.3,9.9-9.8,11c-1.3-1.7-3-3.1-5-4.1C61.3,71.3,60,71,58.7,71c-0.9,0-1.9,0.2-2.8,0.5
		c-2.1,0.7-3.7,2.2-4.7,4.1l-3.6,7.6c-1.8,3.7,0,8.2,3.9,10l1.2,0.6c1.5,0.7,3.1,1.1,4.8,1.2c0.1,0,0.5,0,1.2,0c1.5,0,4.3-0.1,6.7-1
		c0.8-0.3,1.6-0.6,2.2-1S80.5,83.5,87,69.7C93.6,55.9,92.9,40.4,92.9,39.8z"/>
	<path d="M33,15.9c0-0.6-0.5-1.2-1.2-1.2H16.9c-0.6,0-1.2,0.5-1.2,1.2v14.9c0,0.6,0.5,1.2,1.2,1.2h14.9c0.6,0,1.2-0.5,1.2-1.2V15.9z
		 M30.6,29.7H18V17.1h12.6V29.7z"/>
	<path d="M23.6,28.5c0,0,1.7-3.9,5.9-6.4c0,0-0.4-2.2-0.2-3.9c0,0-4.3,3.3-5.8,7.5c0,0-0.7-1.4-1.7-2.7l-2.6,1.7
		C19.2,24.7,22,26.1,23.6,28.5z"/>
	<path d="M33,38c0-0.6-0.5-1.2-1.2-1.2H16.9c-0.6,0-1.2,0.5-1.2,1.2v14.9c0,0.6,0.5,1.2,1.2,1.2h14.9c0.6,0,1.2-0.5,1.2-1.2V38z
		 M30.6,51.8H18V39.2h12.6V51.8z"/>
	<path d="M23.6,50.6c0,0,1.7-3.9,5.9-6.4c0,0-0.4-2.2-0.2-3.9c0,0-4.3,3.3-5.8,7.5c0,0-0.7-1.4-1.7-2.7l-2.6,1.7
		C19.2,46.8,22,48.2,23.6,50.6z"/>
	<path d="M31.8,58.8H16.9c-0.6,0-1.2,0.5-1.2,1.2v14.9c0,0.6,0.5,1.2,1.2,1.2h14.9c0.6,0,1.2-0.5,1.2-1.2v-15
		C33,59.3,32.4,58.8,31.8,58.8z M30.6,73.7H18V61.1h12.6V73.7z"/>
	<path d="M62,18.2H37.3c-0.6,0-1.1,0.5-1.1,1.1s0.5,1.1,1.1,1.1H62c0.6,0,1.1-0.5,1.1-1.1S62.6,18.2,62,18.2z"/>
	<path d="M62,26.3H37.3c-0.6,0-1.1,0.5-1.1,1.1s0.5,1.1,1.1,1.1H62c0.6,0,1.1-0.5,1.1-1.1S62.6,26.3,62,26.3z"/>
	<path d="M62,40.1H37.3c-0.6,0-1.1,0.5-1.1,1.1s0.5,1.1,1.1,1.1H62c0.6,0,1.1-0.5,1.1-1.1S62.6,40.1,62,40.1z"/>
	<path d="M62,48.1H37.3c-0.6,0-1.1,0.5-1.1,1.1s0.5,1.1,1.1,1.1H62c0.6,0,1.1-0.5,1.1-1.1S62.6,48.1,62,48.1z"/>
	<path d="M62,62.9H37.3c-0.6,0-1.1,0.5-1.1,1.1s0.5,1.1,1.1,1.1H62c0.6,0,1.1-0.5,1.1-1.1S62.6,62.9,62,62.9z"/>
	<path d="M73.2,52.1c-0.4-0.2-0.9-0.3-1.3-0.5c-0.7-0.3-1.4-0.8-2-1.2v20.3c1.1-1.1,2.2-2.5,3.3-4.4V52.1z"/>
	<path d="M10.4,78.1V12.3c0-2.2,1.8-4,4-4H66c2.2,0,4,1.8,4,4v17.2l0.1-0.2c0.7-1.6,1.8-2.9,3.2-3.8V12.3C73.3,8.3,70,5,66,5H14.4
		c-4,0-7.3,3.3-7.3,7.3v65.8c0,4,3.3,7.3,7.3,7.3h29.8c0.1-1.1,0.4-2.2,0.8-3.3H14.4C12.2,82.1,10.4,80.3,10.4,78.1z"/>
</g>
</svg>
