<?xml version="1.0" encoding="utf-8"?>
<!-- Generator: Adobe Illustrator 22.0.1, SVG Export Plug-In . SVG Version: 6.00 Build 0)  -->
<svg version="1.1" id="Layer_1" xmlns="http://www.w3.org/2000/svg" xmlns:xlink="http://www.w3.org/1999/xlink" x="0px" y="0px"
	 viewBox="0 0 64 65.3" style="enable-background:new 0 0 64 65.3;" xml:space="preserve">
<g>
	<g>
		<path d="M42.8,9.1c-0.1-0.3-0.2-0.6-0.4-0.9c-0.4-0.6-1-1-1.7-1.2C40.4,7,40.2,7,39.9,7h-1.7V6.7c0-3.3-2.8-6.1-6.1-6.1H32
			c-1.7,0-3.2,0.7-4.4,1.8c-1.1,1.1-1.8,2.6-1.8,4.3V7h-1.7c-0.3,0-0.5,0-0.8,0.1c-0.7,0.2-1.3,0.6-1.6,1.2
			c-0.2,0.3-0.3,0.6-0.4,0.9c0,0.2-0.1,0.4-0.1,0.6V13c0,0.2,0,0.4,0.1,0.6c0.4,1.2,1.5,2.1,2.7,2.1H40c1.3-0.1,2.4-0.9,2.7-2.1
			c0-0.2,0.1-0.4,0.1-0.5V9.6C42.8,9.4,42.8,9.3,42.8,9.1z M35.3,7h-6.6V6.7c0-1.7,1.5-3.1,3.2-3.1h0.1c1.7,0,3.2,1.4,3.2,3.1V7z"/>
	</g>
	<path d="M55,48.8l0-0.6c0-1.3,0-2.7,0-4.1c0-3.2,0-6.3,0-9.5V33c0-4.9,0-10,0-15c0-3.7-1.6-6.5-4.6-8.1C49.3,9.3,48.1,9,46.5,9
		l-0.8,0v3.9l0.2,0c0.5,0,1,0,1.4,0c2.1,0.1,3.8,1.9,3.9,3.9c0.1,2,0.1,4.1,0.1,5.9c0,0.4,0,0.8,0,1.2c0,6.8,0,13.7,0,20.5
		c0,4.8,0,4.5,0,9.2c0,1.1,0,2.2-0.5,3.2c-0.9,1.7-2.2,2.5-3.9,2.5c-2.4,0-4.7,0-7.1,0l-7.1,0H32h-0.6l-7.1,0c-2.4,0-4.7,0-7.1,0
		c-1.8,0-3-0.8-3.9-2.5c-0.5-1-0.5-2.1-0.5-3.2c0-4.8,0-4.5,0-9.2c0-6.8,0-13.7,0-20.5c0-0.4,0-0.8,0-1.2c0-1.8,0-3.9,0.1-5.9
		c0.1-2,1.9-3.8,3.9-3.9c0.4,0,0.9,0,1.4,0l0.2,0V9l-0.8,0c-1.6,0-2.8,0.3-3.9,0.8C10.6,11.5,9,14.3,9,18c0,5,0,10.1,0,15v1.6
		c0,3.2,0,6.3,0,9.5c0,1.4,0,2.7,0,4.1l0,0.6c0,3.8,0,2.7,0.1,6.6c0,2.1,0.9,4.1,2.4,5.6c1.5,1.5,3.5,2.4,5.7,2.4h0
		c4.5,0,8.9,0,13.3,0H32h1.5c4.5,0,8.9,0,13.3,0h0c2.1,0,4.1-0.8,5.7-2.4c1.5-1.5,2.4-3.5,2.4-5.6C55,51.5,55,52.6,55,48.8z"/>
	<path d="M43.9,48.5c0.7,0.7,1.3,1.3,1.9,2c0.7,0.8,0.5,1.9-0.5,2.2c-0.6,0.2-1,0-1.4-0.4c-0.7-0.6-1.3-1.2-2-1.9
		c-0.7,0.7-1.3,1.3-2,2c-0.4,0.4-0.9,0.6-1.4,0.4c-1-0.3-1.2-1.4-0.5-2.2c0.5-0.5,1-1,1.5-1.5c0.2-0.1,0.5-0.4,0.4-0.5
		c-0.8-0.8-1.4-1.3-2-2c-0.6-0.6-0.6-1.4-0.1-2c0.5-0.5,1.3-0.5,1.9,0.1c0.7,0.6,1.2,1.3,1.9,2c0.8-0.8,1.5-1.5,2.2-2.1
		c0.8-0.8,2-0.4,2.3,0.6c0.1,0.5-0.1,0.9-0.5,1.3c-0.6,0.6-1.2,1.2-1.8,1.8C43.9,48.4,43.9,48.4,43.9,48.5z"/>
	<path d="M43.9,24.7c0.7,0.7,1.3,1.3,1.9,2c0.7,0.8,0.5,1.9-0.5,2.2c-0.6,0.2-1,0-1.4-0.4c-0.7-0.6-1.3-1.2-2-1.9
		c-0.7,0.7-1.3,1.3-2,2c-0.4,0.4-0.9,0.6-1.4,0.4c-1-0.3-1.2-1.4-0.5-2.2c0.5-0.5,1-1,1.5-1.5c0.2-0.1,0.5-0.4,0.4-0.5
		c-0.8-0.8-1.4-1.3-2-2c-0.6-0.6-0.6-1.4-0.1-2c0.5-0.5,1.3-0.5,1.9,0.1c0.7,0.6,1.2,1.3,1.9,2c0.8-0.8,1.5-1.5,2.2-2.1
		c0.8-0.8,2-0.4,2.3,0.6c0.1,0.5-0.1,0.9-0.5,1.3c-0.6,0.6-1.2,1.2-1.8,1.8C43.9,24.6,43.9,24.7,43.9,24.7z"/>
	<path d="M46.6,32.4C46.6,32.4,46.6,32.5,46.6,32.4c-0.2,0-0.3,0.1-0.4,0.1L46,32.7c-0.2,0.1-0.4,0.2-0.6,0.4
		c-1.5,1-2.9,2.1-4.2,3.1L41,36.3c-0.3,0.3-0.7,0.5-1,0.8l-0.2,0.2l-0.3-0.3c-0.4-0.3-0.8-0.7-1.3-1c-0.3-0.2-0.6-0.4-0.8-0.5
		c-0.3-0.1-0.6-0.1-0.7,0.1c-0.1,0.2-0.2,0.4-0.1,0.6c0,0.2,0.1,0.4,0.2,0.6c0.4,1,1,2.1,1.9,3.3c0.3,0.4,0.7,0.6,1.2,0.6
		c0.4,0,0.8-0.2,1.1-0.5c0.3-0.3,0.5-0.5,0.8-0.8c0.9-0.9,1.9-2,2.9-3.1c0.3-0.3,0.6-0.7,0.9-1c0.2-0.2,0.4-0.5,0.6-0.7l0-0.1
		c0.7-0.8,1.1-1.3,1-1.7C47.2,32.7,47.1,32.4,46.6,32.4z"/>
	<rect x="17.4" y="23.3" width="16.5" height="3"/>
	<rect x="17.4" y="35" width="16.5" height="3"/>
	<rect x="17.4" y="47.1" width="16.5" height="3"/>
</g>
</svg>
