<?xml version="1.0" encoding="utf-8"?>
<!-- Generator: Adobe Illustrator 22.0.1, SVG Export Plug-In . SVG Version: 6.00 Build 0)  -->
<svg version="1.1" id="Layer_1" xmlns="http://www.w3.org/2000/svg" xmlns:xlink="http://www.w3.org/1999/xlink" x="0px" y="0px"
	 viewBox="0 0 64 66.7" style="enable-background:new 0 0 64 66.7;" xml:space="preserve">
<g>
	<g>
		<path d="M15.9,59c0.3,0,0.6-0.1,0.9-0.4c0.4-0.4,0.9-0.6,1.4-0.6s1.1,0.2,1.4,0.6c0.2,0.2,0.5,0.4,0.9,0.4l0,0
			c0.3,0,0.6-0.1,0.9-0.4c0.2-0.2,0.4-0.5,0.4-0.9c0-0.3-0.1-0.6-0.4-0.9c-0.8-0.8-2-1.3-3.1-1.3c-1.2,0-2.3,0.5-3.1,1.3
			c-0.2,0.2-0.4,0.5-0.4,0.9s0.1,0.6,0.4,0.9C15.2,58.8,15.5,59,15.9,59z"/>
		<ellipse cx="14.7" cy="52.2" rx="1.5" ry="1.9"/>
		<ellipse cx="21.6" cy="52.2" rx="1.5" ry="1.9"/>
		<path d="M18.1,63.6c-5.3,0-9.6-4.3-9.6-9.6s4.3-9.6,9.6-9.6s9.6,4.3,9.6,9.6C27.8,59.2,23.5,63.6,18.1,63.6z M18.1,46.3
			c-4.2,0-7.6,3.4-7.6,7.6s3.4,7.6,7.6,7.6s7.6-3.4,7.6-7.6S22.3,46.3,18.1,46.3z"/>
	</g>
	<g>
		<g>
			<path d="M20.4,11.7c-0.3,0-0.6,0.1-0.9,0.4c-0.4,0.4-0.9,0.6-1.4,0.6s-1.1-0.2-1.4-0.6c-0.2-0.2-0.5-0.4-0.9-0.4l0,0
				c-0.3,0-0.6,0.1-0.9,0.4c-0.2,0.2-0.4,0.5-0.4,0.9s0.1,0.6,0.4,0.9c0.8,0.8,2,1.3,3.1,1.3c1.2,0,2.3-0.5,3.1-1.3
				c0.2-0.2,0.4-0.5,0.4-0.9s-0.1-0.6-0.4-0.9C21.1,11.8,20.8,11.7,20.4,11.7z"/>
			<ellipse cx="14.7" cy="8.3" rx="1.5" ry="1.9"/>
			<ellipse cx="21.6" cy="8.3" rx="1.5" ry="1.9"/>
		</g>
		<path d="M18.1,19.7c-5.3,0-9.6-4.3-9.6-9.6s4.3-9.6,9.6-9.6s9.6,4.3,9.6,9.6C27.8,15.4,23.5,19.7,18.1,19.7z M18.1,2.5
			c-4.2,0-7.6,3.4-7.6,7.6s3.4,7.6,7.6,7.6s7.6-3.4,7.6-7.6S22.3,2.5,18.1,2.5z"/>
	</g>
	<g>
		<path d="M18.1,41.7c-5.3,0-9.6-4.3-9.6-9.6s4.3-9.6,9.6-9.6s9.6,4.3,9.6,9.6C27.8,37.4,23.5,41.7,18.1,41.7z M18.1,24.5
			c-4.2,0-7.6,3.4-7.6,7.6s3.4,7.6,7.6,7.6s7.6-3.4,7.6-7.6S22.3,24.5,18.1,24.5z"/>
		<g>
			<ellipse cx="14.7" cy="30.3" rx="1.5" ry="1.9"/>
			<ellipse cx="21.6" cy="30.3" rx="1.5" ry="1.9"/>
			<path d="M20.5,36.7h-4.7c-0.7,0-1.2-0.5-1.2-1.2s0.5-1.2,1.2-1.2h4.7c0.7,0,1.2,0.5,1.2,1.2C21.7,36.2,21.1,36.7,20.5,36.7z"/>
		</g>
	</g>
	<g>
		<g>
			<path d="M54.4,9.3h-6.7c-0.6,0-1.1-0.5-1.1-1.1s0.5-1.1,1.1-1.1h6.7c0.6,0,1.1,0.5,1.1,1.1C55.5,8.8,55,9.3,54.4,9.3z"/>
			<path d="M52.4,13h-4.8c-0.6,0-1.1-0.5-1.1-1.1s0.5-1.1,1.1-1.1h4.8c0.6,0,1.1,0.5,1.1,1.1S53,13,52.4,13z"/>
		</g>
		<path d="M42.1,6.6c-0.3-0.3-0.6-0.4-1-0.4s-0.7,0.1-1,0.4l-4,4L34,8.4c-0.6-0.6-1.5-0.6-2,0c-0.6,0.6-0.6,1.4,0,2l3.1,3.1
			c0.3,0.3,0.6,0.4,1,0.4s0.7-0.1,1-0.4l5-5c0.3-0.3,0.4-0.6,0.4-1S42.4,6.8,42.1,6.6z"/>
	</g>
	<g>
		<g>
			<path d="M54.4,31.3h-6.7c-0.6,0-1.1-0.5-1.1-1.1s0.5-1.1,1.1-1.1h6.7c0.6,0,1.1,0.5,1.1,1.1S55,31.3,54.4,31.3z"/>
			<path d="M52.4,35h-4.8c-0.6,0-1.1-0.5-1.1-1.1s0.5-1.1,1.1-1.1h4.8c0.6,0,1.1,0.5,1.1,1.1S53,35,52.4,35z"/>
		</g>
		<path d="M39.5,37.5h-5c-1.6,0-2.9-1.3-2.9-2.9v-5c0-1.6,1.3-2.9,2.9-2.9h5c1.6,0,2.9,1.3,2.9,2.9v5C42.4,36.2,41.1,37.5,39.5,37.5
			z M34.5,29.2c-0.2,0-0.4,0.2-0.4,0.4v5c0,0.2,0.2,0.4,0.4,0.4h5c0.2,0,0.4-0.2,0.4-0.4v-5c0-0.2-0.2-0.4-0.4-0.4H34.5z"/>
	</g>
	<g>
		<g>
			<path d="M54.4,53.1h-6.7c-0.6,0-1.1-0.5-1.1-1.1S47,51,47.6,51h6.7c0.6,0,1.1,0.5,1.1,1.1S55,53.1,54.4,53.1z"/>
			<path d="M52.4,56.9h-4.8c-0.6,0-1.1-0.5-1.1-1.1s0.5-1.1,1.1-1.1h4.8c0.6,0,1.1,0.5,1.1,1.1S53,56.9,52.4,56.9z"/>
		</g>
		<path d="M39.5,59.4h-5c-1.6,0-2.9-1.3-2.9-2.9v-5c0-1.6,1.3-2.9,2.9-2.9h5c1.6,0,2.9,1.3,2.9,2.9v5C42.4,58,41.1,59.4,39.5,59.4z
			 M34.5,51c-0.2,0-0.4,0.2-0.4,0.4v5c0,0.2,0.2,0.4,0.4,0.4h5c0.2,0,0.4-0.2,0.4-0.4v-5c0-0.2-0.2-0.4-0.4-0.4H34.5z"/>
	</g>
</g>
</svg>
