<?xml version="1.0" encoding="utf-8"?>
<!-- Generator: Adobe Illustrator 22.0.1, SVG Export Plug-In . SVG Version: 6.00 Build 0)  -->
<svg version="1.1" id="Layer_1" xmlns="http://www.w3.org/2000/svg" xmlns:xlink="http://www.w3.org/1999/xlink" x="0px" y="0px"
	 viewBox="0 0 100 99.5" style="enable-background:new 0 0 100 99.5;" xml:space="preserve">
<g>
	<path d="M26,60.6c-0.5-0.6-1.5-0.7-2.1-0.2l-7.1,6c-1.5,1.3-1.7,3.6-0.4,5.2l11.9,14c0.6,0.8,1.6,1.2,2.6,1.2
		c0.8,0,1.6-0.3,2.2-0.8l2-1.7c3.6-3,4-8.4,0.9-12L26,60.6z M33.1,82.1l-2,1.7c-0.1,0.1-0.2,0.1-0.3,0.1c-0.1,0-0.2,0-0.3-0.1
		l-11.9-14c-0.2-0.3-0.2-0.7,0.1-1l5.9-5.1l9.1,10.6C35.7,76.7,35.4,80.1,33.1,82.1z"/>
	<path d="M65.5,50.6c-0.1-0.1-0.1-0.1-0.2-0.2L64.9,48l4.7,0.6c0.5,0.1,0.9-0.1,1.3-0.4c0.3-0.3,0.5-0.8,0.4-1.3l-0.7-4.7l4.7,0.6
		c0.5,0.1,0.9-0.1,1.3-0.4c0.3-0.3,0.5-0.8,0.4-1.3l-0.7-4.7L81,37c0.5,0.1,0.9-0.1,1.3-0.4c0.3-0.3,0.5-0.8,0.4-1.3l-0.7-4.7
		l4.7,0.6c0.5,0.1,0.9-0.1,1.3-0.4c0.3-0.3,0.5-0.8,0.4-1.3l-0.7-4.7l4.7,0.6c0.5,0.1,0.9-0.1,1.3-0.4c0.3-0.3,0.5-0.8,0.4-1.3
		l-0.9-6.7c0,0,0-0.1,0-0.1c0-0.1,0-0.1,0-0.2c0,0,0-0.1-0.1-0.1c0,0,0-0.1-0.1-0.1c0-0.1-0.1-0.1-0.1-0.2c0,0,0,0,0-0.1L84,5.5
		C83.8,5.2,83.4,5,83,5c-0.4,0-0.8,0.1-1.1,0.4L45.9,36l-6.4-6.4l2.1-2.1c1.4-1.4,1.7-3.4,1-5c1-1.6,2.8-4.4,4.2-5.4
		c1.2-1,6.5-3.8,8.4-4.8c0.4-0.2,0.7-0.6,0.8-1.1s-0.1-0.9-0.4-1.3l-1.9-1.9c-0.3-0.3-0.8-0.5-1.3-0.4c-0.3,0-7.3,1.1-10.8,2.2
		c-3,1-6.3,3.1-7.7,4c-0.5-0.2-1.1-0.3-1.7-0.3c-1.2,0-2.4,0.5-3.3,1.4L17.6,26.1c-1.6,1.6-1.8,4.1-0.6,5.9l-2.5,2.5
		c-0.8-0.4-1.6-0.7-2.5-0.7c-1.4,0-2.6,0.5-3.6,1.5l-2.2,2.2c-0.3,0.3-0.4,0.7-0.4,1.1c0,0.4,0.2,0.8,0.4,1.1l10.5,10.5
		c0.3,0.3,0.7,0.4,1.1,0.4s0.8-0.1,1.1-0.4l2.2-2.2c1.6-1.7,1.9-4.1,0.8-6.1l2.5-2.5c0.8,0.5,1.6,0.8,2.6,0.8c1.2,0,2.4-0.5,3.3-1.4
		l2.1-2.1l5.9,5.9L27,52.2c-0.5-0.2-1.1-0.4-1.8-0.4c-1,0-2,0.4-2.8,1L7.8,65.4c-1.8,1.5-2,4.2-0.5,6l18.2,21.3
		c1.3,1.5,3.1,2.3,5,2.3c1.6,0,3.1-0.6,4.3-1.6l4.4-3.7c5.4-4.6,6.8-12.2,3.9-18.4l3.6,0.5c0.1,0,0.1,0,0.2,0c0.4,0,0.8-0.2,1.1-0.4
		c0.3-0.3,0.5-0.8,0.4-1.3l-0.7-4.7l4.7,0.6c0.5,0.1,0.9-0.1,1.3-0.4c0.3-0.3,0.5-0.8,0.4-1.3l-0.1-1l23.4,26
		c1.4,1.4,3.2,2.1,5.1,2.1s3.8-0.8,5.1-2.1l4.4-4.4c1.4-1.4,2.1-3.2,2.1-5.1s-0.8-3.8-2.2-5.2L65.5,50.6z M82.7,8.6l7.7,9.3l0.6,4.3
		l-4.7-0.6c-0.5-0.1-0.9,0.1-1.3,0.4c-0.3,0.3-0.5,0.8-0.4,1.3l0.7,4.7l-4.7-0.6c-0.5-0.1-0.9,0.1-1.3,0.4c-0.3,0.3-0.5,0.8-0.4,1.3
		l0.7,4.7l-4.7-0.6c-0.5-0.1-0.9,0.1-1.3,0.4c-0.3,0.3-0.5,0.8-0.4,1.3l0.7,4.7L69.1,39c-0.5-0.1-0.9,0.1-1.3,0.4
		c-0.3,0.3-0.5,0.8-0.4,1.3l0.7,4.7l-4.7-0.6c-0.5-0.1-0.9,0.1-1.3,0.4c-0.3,0.3-0.5,0.8-0.4,1.3l0.4,2.9c-0.8,0-1.5,0.3-2.2,0.6
		L48,38.2L82.7,8.6z M42.7,12.6c2.4-0.8,6.9-1.6,9-1.9c-2.3,1.2-5.6,3-6.7,3.9c-1.5,1.2-3.3,3.6-4.3,5.3l-4.2-4.2
		C38,14.8,40.5,13.4,42.7,12.6z M19,45.9L17.8,47l-8.4-8.4l1.1-1.1c0.8-0.8,2.2-0.8,3,0l0.1,0.1l5.3,5.3l0.1,0.1
		C19.8,43.7,19.8,45,19,45.9z M20,39.6l-3.1-3.1l2.3-2.3l3.1,3.1L20,39.6z M28.2,36.7c-0.6,0.6-1.7,0.6-2.4,0l-0.4-0.4L20.2,31
		c0,0,0,0,0,0l-0.4-0.4c-0.6-0.6-0.6-1.7,0-2.4l11.3-11.3c0.3-0.3,0.7-0.5,1.2-0.5c0.4,0,0.9,0.2,1.2,0.5l6.1,6.1
		c0.6,0.6,0.6,1.7,0,2.4L28.2,36.7z M37.4,31.7L57.6,52l-1,1c0,0-0.1,0-0.1,0.1l-0.4,0.4l-1.4,1.4L34.6,34.5L37.4,31.7z M37.2,87.4
		l-4.4,3.7c-0.7,0.6-1.5,0.9-2.3,0.9c-1.1,0-2.1-0.5-2.8-1.3L9.6,69.4c-0.4-0.5-0.4-1.3,0.1-1.8l14.7-12.6c0.3-0.2,0.6-0.3,0.8-0.3
		c0.4,0,0.7,0.2,1,0.4l12.4,14.6C43.1,75,42.5,82.9,37.2,87.4z M50.6,56.8c-0.3,0.3-0.5,0.8-0.4,1.3l0.7,4.7l-4.7-0.6
		c-0.5-0.1-0.9,0.1-1.3,0.4c-0.3,0.3-0.5,0.8-0.4,1.3l0.7,4.7L41,68c0,0-0.1-0.1-0.1-0.1L29.3,54.2l11.2-9.5l11.7,11.7l-0.3,0
		C51.4,56.3,51,56.4,50.6,56.8z M89.9,82.7l-4.4,4.4c-0.8,0.8-1.9,1.3-3,1.3c-1.1,0-2.2-0.4-3-1.2L55.6,60.6
		c-0.6-0.7-0.6-1.8,0.1-2.4l4.8-4.8c0,0,0,0,0,0l0.5-0.5c0.3-0.3,0.8-0.5,1.2-0.5c0.4,0,0.9,0.2,1.2,0.5l26.5,23.9
		c0.8,0.8,1.3,1.9,1.3,3C91.2,80.8,90.7,81.9,89.9,82.7z"/>
</g>
</svg>
