<?xml version="1.0" encoding="utf-8"?>
<!-- Generator: Adobe Illustrator 22.0.1, SVG Export Plug-In . SVG Version: 6.00 Build 0)  -->
<svg version="1.1"
	 id="Layer_1" xmlns:cc="http://creativecommons.org/ns#" xmlns:dc="http://purl.org/dc/elements/1.1/" xmlns:inkscape="http://www.inkscape.org/namespaces/inkscape" xmlns:rdf="http://www.w3.org/1999/02/22-rdf-syntax-ns#" xmlns:sodipodi="http://sodipodi.sourceforge.net/DTD/sodipodi-0.dtd" xmlns:svg="http://www.w3.org/2000/svg"
	 xmlns="http://www.w3.org/2000/svg" xmlns:xlink="http://www.w3.org/1999/xlink" x="0px" y="0px" viewBox="0 0 26.5 26.7"
	 style="enable-background:new 0 0 26.5 26.7;" xml:space="preserve">
<g transform="translate(0,-270.54167)">
	<path d="M23,271.9c-0.2,0-1.9,0.6-4.7,1.5c-2.9,0.9-7.1,2.1-11.8,2.9c0,0.9,0.2,1.8,0.5,2.7c0.3,0.7,0.7,1.4,1.2,1.9
		c5.5-2.3,7.6-3.3,11.5-4.7c2.9-1.1,4.8-1.5,4.8-1.6c0-0.1-1.9,0.2-4.8,1.2c-3.5,1.2-6.3,2.4-11.3,4.6c-0.4-0.5-0.8-1-1-1.6
		c-0.3-0.7-0.4-1.4-0.4-2.2c4.7-0.7,8.7-1.9,11.6-2.9C21.4,272.7,23.1,271.9,23,271.9C23,271.9,23,271.9,23,271.9L23,271.9z
		 M6.3,275.1c-1.1,0-2.8,0.4-4.7,1.8c0.4,1.1,0.6,2.4,1,3.8c0,0.1,0.1,0.2,0.1,0.4c0.5,1.5,1.3,2.8,2.3,3.7c0,1.8,0.3,3,0.7,3.9
		c0.4-0.1,0.7-0.1,0.9-0.2c-0.2,1-0.3,2-0.3,2.8c-0.1,2.6,0,4.3,0.1,4.3v0c0.1,0,0.2-1.6,0.4-4.3c0.1-1.2,0.2-2.6,0.4-4.1
		c1.3,0.4,2.8,0.8,4.3,1.1c1.5,0.3,3,0.4,4.4,0.5c2.4,0,4.8-0.2,6.2-0.4c1.5-0.2,2.4-0.3,2.4-0.4c0-0.1-0.9-0.1-2.4,0
		c-1.3,0.1-3.9,0.2-6.1,0.1c-1.4,0-2.9-0.1-4.5-0.4c-1.6-0.2-3.1-0.6-4.5-0.9c-0.1,0.5-0.2,1-0.3,1.5c-0.2,0-0.4,0-0.8,0.1
		c-0.3-0.9-0.5-2.1-0.3-3.9c-0.9-0.9-1.6-2.2-2.1-3.7c0-0.1-0.1-0.2-0.1-0.3c-0.4-1.3-0.7-2.3-1.2-3.5c1.7-1.3,3.2-1.7,4.3-1.7
		c0.3,0.4,0.6,0.6,0.6,0.6c0,0-0.1-0.3-0.5-0.8C6.5,275.1,6.4,275.1,6.3,275.1L6.3,275.1z M8.8,281.1C8.8,281.1,8.8,281.1,8.8,281.1
		c-0.1,0,0.1,0.4,0.3,0.9c0.1,0.7,0.4,1.6,1.3,2.4c0.5,0.4,1,0.7,1.6,1.1c0.2,0.1,0.4,0.3,0.5,0.4c-0.1,0.2-0.2,0.4-0.3,0.5
		c-0.1,0.1-0.2,0.2-0.4,0.1c-2,0.2-3.4,0.3-3.4,0.5c0,0.1,1.4,0.2,3.4,0.1c0.3,0.1,0.7-0.1,0.9-0.4c0.2-0.3,0.2-0.6,0.3-0.9
		c-0.2-0.2-0.4-0.3-0.6-0.5c-0.6-0.5-1.2-0.9-1.6-1.3c-0.8-0.7-1.2-1.4-1.4-2C9.1,281.4,8.8,281.1,8.8,281.1L8.8,281.1z M18,285.4
		c-1.3,0-2.4,0.1-3.2,0.3c-1.1,0.2-1.7,0.4-1.7,0.5c0,0.1,0.7-0.1,1.7-0.2c1.1-0.1,2.4-0.2,4.1-0.1c1.5,0.1,3.2,0.2,4.2,0.3
		c1.1,0.1,1.7,0.1,1.7,0.1c0-0.1-0.6-0.2-1.7-0.4c-1-0.2-2.6-0.4-4.2-0.5C18.6,285.4,18.3,285.4,18,285.4L18,285.4z M17.9,286.2
		c-0.2,0-0.4,0-0.6,0c-3,0.1-3.6,0.3-3.8,0.4l0,0c0.5-0.1,1.7-0.3,3.9-0.3c1.4,0,3.3,0.1,4.6,0.3c1,0.2,1.5,0.4,0.9,0.7
		c-0.5,0.2-1.8,0.4-3.4,0.5c-0.8,0-1.6,0-2.5,0c-0.8,0-1.5-0.1-2.1-0.2c-0.3,0-0.5-0.1-0.7-0.1c-0.2-0.1-0.3-0.1-0.4-0.2
		c-0.1-0.1,0.1-0.2,0.5-0.3c0.5-0.1,1.3-0.2,2.2-0.2c0.9,0,1.9,0,2.5,0.1c0.3,0,0.6,0.1,0.7,0.2c0.1,0.1,0.2,0.1,0.1,0.2
		c-0.1,0.1-0.3,0.1-0.6,0.2c-0.3,0-0.7,0.1-1.1,0.1c-0.4,0-0.7,0-1.1,0c-0.4,0-0.7,0-1-0.1c-0.3,0-0.5-0.1-0.6-0.1
		c-0.1,0-0.1-0.1,0-0.1c0.1-0.1,0.4-0.1,0.8-0.1c0.2,0,0.4,0,0.6,0c0.2,0,0.4,0,0.6,0c0.2,0,0.3,0,0.4,0.1c0.1,0,0.1,0.1,0.1,0.1
		c0,0-0.1,0.1-0.2,0.1c-0.1,0-0.3,0-0.5,0c-0.2,0-0.5,0-0.6,0c-0.4,0-0.5-0.1-0.6-0.1c0,0,0,0,0.5,0.1c0.2,0,0.5,0,0.8,0
		c0.2,0,0.5,0,0.7-0.1c0.2,0,0.3-0.1,0.3-0.1c0,0,0-0.1-0.1-0.1c-0.1,0-0.3-0.1-0.5-0.1c-0.2,0-0.5,0-0.8,0c-0.3,0-0.5,0-0.8,0
		c-0.5,0-0.9,0.1-1.1,0.2c-0.2,0.1-0.2,0.1-0.1,0.2c0.1,0.1,0.4,0.1,0.8,0.2c0.4,0,0.8,0.1,1.3,0.1c0.5,0,1,0,1.4,0
		c0.5,0,1.1-0.1,1.5-0.1c0.4-0.1,0.7-0.1,0.8-0.2c0.1-0.1,0.1-0.2-0.1-0.2c-0.2-0.1-0.5-0.1-0.9-0.2c-0.8-0.1-2-0.2-3.2-0.2
		c-1.1,0-2.2,0.1-2.8,0.3c-0.6,0.1-0.8,0.3-0.7,0.4c0.1,0.1,0.2,0.1,0.5,0.2c0.2,0.1,0.5,0.1,0.8,0.2c0.7,0.1,1.6,0.2,2.6,0.2
		c1,0,2,0,2.9,0c2-0.1,3.5-0.3,4-0.6c0.6-0.3,0-0.6-1.2-0.8C21.2,286.3,19.4,286.2,17.9,286.2L17.9,286.2z M8,289
		C7.9,289,7.9,289,8,289c-0.1,0.1,0.1,0.4,0.4,0.7c-0.2,0.4-0.5,0.9-0.8,1.6c0.3,0.1,0.6,0.3,0.9,0.4c0.2,0.1,0.5,0.2,0.7,0.3
		c-0.5,0.4-0.8,0.8-1.1,1.2c0,0.8,0.1,1.2,0.2,1.2c0.1,0,0.2-0.4,0.3-1c0.3-0.4,0.7-0.9,1.1-1.4v0c-0.2-0.1-0.4-0.2-0.7-0.3
		c-0.3-0.2-0.6-0.3-0.9-0.5c0.3-0.6,0.5-1.1,0.7-1.5C8.3,289.3,8.1,289,8,289L8,289z M10.4,289.7C10.4,289.7,10.4,289.7,10.4,289.7
		c-0.1,0,0,0.7,0.3,1.6c0.3,0.2,0.6,0.3,0.9,0.5c0,0.1-0.1,0.2-0.1,0.2c-0.2,0.4-0.3,0.7-0.5,1c0,0.4,0,0.8,0,1.1
		c0.4,0.4,0.7,0.5,0.8,0.4c0.1-0.1-0.1-0.3-0.4-0.6c0.1-0.2,0.2-0.5,0.3-0.8c0.1-0.4,0.3-0.8,0.4-1.3c0-0.1,0.1-0.2,0.1-0.3
		c-0.3-0.3-0.7-0.5-0.9-0.7C10.8,290.2,10.5,289.7,10.4,289.7L10.4,289.7z M23.4,289.8C23.4,289.8,23.4,289.8,23.4,289.8
		c-0.1,0.1,0,0.4,0.3,0.8c0,0.1-0.1,0.3-0.1,0.5c0.1,0.2,0.3,0.5,0.5,0.8c-0.1,0.1-0.1,0.1-0.2,0.2c-0.3,0.2-0.5,0.5-0.8,0.7
		c0.6,0.9,1,1.4,1.2,1.3c0.1-0.1-0.2-0.7-0.7-1.3c0.3-0.2,0.5-0.4,0.8-0.7c0.1,0,0.1-0.1,0.2-0.1c-0.1-0.4-0.3-0.7-0.4-1
		c0-0.2,0-0.3,0-0.5C23.8,290.1,23.6,289.8,23.4,289.8L23.4,289.8z M21.1,289.9c-0.1,0-0.5,0.3-1,1c0.4,0,0.8,0,1.3,0
		c-0.1,0.3-0.1,0.5-0.2,0.8c-0.1,0.2-0.1,0.4-0.1,0.6c0.3,0.2,0.6,0.3,0.9,0.5c-0.5,0.9-0.7,1.6-0.6,1.6c0.1,0.1,0.5-0.6,1-1.8
		c-0.3-0.2-0.5-0.4-0.8-0.6c0-0.2,0-0.4,0.1-0.6c0-0.3,0.1-0.6,0.1-0.8c-0.6,0.1-1,0.1-1.5,0.2C20.9,290.4,21.3,290,21.1,289.9
		C21.2,289.9,21.1,289.9,21.1,289.9L21.1,289.9z M13.3,289.9c-0.1,0-0.1,0-0.1,0c0,0.1,0.1,0.1,0.2,0.2c0,0.2,0,0.3-0.1,0.6
		c0.2,0.1,0.4,0.2,0.6,0.2c-0.2,0.2-0.4,0.4-0.6,0.6c0.1,0.4,0.2,0.8,0.3,1.2c0,0,0,0,0,0c0.2,0.2,0.5,0.4,0.7,0.6
		c-0.4,0.3-0.7,0.6-0.9,0.8c-0.2,0.8-0.2,1.3-0.1,1.3c0.1,0,0.3-0.4,0.6-1c0.3-0.3,0.6-0.6,1-1c-0.2-0.3-0.4-0.6-0.6-0.9
		c0,0,0-0.1,0-0.1c-0.1-0.3-0.2-0.5-0.3-0.8c0.2-0.3,0.3-0.6,0.4-0.8c-0.2-0.1-0.4-0.3-0.6-0.3c0-0.2,0-0.4-0.1-0.5
		C13.5,289.9,13.4,289.9,13.3,289.9L13.3,289.9z M18.3,290.2c-0.1,0-0.3,0.4-0.5,1.2c0.4,0.4,1,0.8,1.7,1.2
		c-0.2,0.1-0.6,0.2-0.8,0.3c-0.2,0.1-0.4,0.1-0.5,0.2c0,0.3,0,0.6,0,0.8c0,0,0.1,0.2,0.1,0.2c0.3,0.1,0.6,0.2,0.8,0.3
		c0.3,0.2,0.5,0.3,0.7,0.5c-0.4,0.3-0.7,0.5-0.6,0.6c0.1,0.1,0.4-0.1,0.9-0.6c-0.2-0.3-0.4-0.6-0.7-1c-0.2,0-0.4-0.1-0.6-0.1
		c0,0,0,0,0,0c0,0-0.1,0-0.1,0c0,0,0.1,0,0.1,0c0-0.2-0.1-0.3-0.1-0.5c0.2-0.1,0.3-0.2,0.5-0.3c0.2-0.1,0.5-0.3,0.7-0.4
		c-0.6-0.6-1.2-1-1.6-1.4C18.3,290.6,18.4,290.2,18.3,290.2C18.3,290.2,18.3,290.2,18.3,290.2L18.3,290.2z M15.9,290.9
		c-0.2,0-0.2,0-0.2,0.1c0,0.1,0.1,0.2,0.4,0.2c0,0.2,0,0.5,0,0.7c-0.2,0.2-0.4,0.5-0.6,0.7c0,0,0,0.1,0,0.1c0.5,1.4,0.9,2.4,1.1,2.3
		c0.2-0.1-0.1-1.1-0.5-2.2c0,0,0-0.1,0-0.1c0.2-0.3,0.4-0.5,0.5-0.7c-0.1-0.4-0.3-0.8-0.3-1.1C16.1,290.9,16,290.9,15.9,290.9
		L15.9,290.9z"/>
</g>
</svg>
