<?xml version="1.0" encoding="utf-8"?>
<!-- Generator: Adobe Illustrator 22.0.1, SVG Export Plug-In . SVG Version: 6.00 Build 0)  -->
<svg version="1.1" id="Layer_1" xmlns="http://www.w3.org/2000/svg" xmlns:xlink="http://www.w3.org/1999/xlink" x="0px" y="0px"
	 viewBox="0 0 71 64" style="enable-background:new 0 0 71 64;" xml:space="preserve">
<g>
	<g>
		<path d="M55.6,45.4c-0.2-0.2-0.4-0.3-0.7-0.3c-0.3,0-0.5,0.1-0.7,0.3l-5.8,6.2c-0.4,0.4-0.4,1,0,1.4l6.2,5.8
			c0.2,0.2,0.4,0.3,0.7,0.3c0,0,0,0,0,0c0.3,0,0.5-0.1,0.7-0.3l5.8-6.2c0.4-0.4,0.4-1,0-1.4L55.6,45.4z M55.3,56.7l-4.8-4.4l4.4-4.8
			l4.8,4.4L55.3,56.7z"/>
		<path d="M18,45.9c-3.3,0-6,2.7-6,6s2.7,6,6,6s6-2.7,6-6S21.4,45.9,18,45.9z M18,56c-2.2,0-4-1.8-4-4s1.8-4,4-4s4,1.8,4,4
			S20.3,56,18,56z"/>
		<path d="M48,14c2.8,0,5-2.2,5-5s-2.2-5-5-5s-5,2.2-5,5S45.2,14,48,14z M48,6c1.7,0,3,1.3,3,3s-1.3,3-3,3s-3-1.3-3-3S46.3,6,48,6z"
			/>
		<path d="M22,14c2.8,0,5-2.2,5-5s-2.2-5-5-5s-5,2.2-5,5S19.2,14,22,14z M22,6c1.7,0,3,1.3,3,3s-1.3,3-3,3s-3-1.3-3-3S20.3,6,22,6z"
			/>
		<path d="M61.4,28c0-0.3,0.1-0.7,0.1-1c0-3.4-1.1-6-3.1-7.8c-2.8-2.5-7.5-3.4-13.6-2.6c-3.8,0.5-6.6,2.8-7.8,6.6
			c-0.5,1.5-0.7,3.1-0.7,4.9h-3c0.3-2.8,0.4-6.2-1.7-8.9c-1.8-2.1-4.9-3.1-9.6-3.1c-2.8,0-6.9,0.4-9.2,3.1C10.8,21.4,9.3,25,9.5,28
			h-4v2h4.4c0.7,2,1.9,4,3.2,5.6c1.1,1.3,2.5,2.8,4.3,3.1c0.3,0,0.5,0.1,0.7,0.1c0.8,0,1.3-0.3,1.6-0.6c0.4-0.3,0.9-1,0.8-2.2
			c-0.1-1.7-1.5-4.2-2.7-5.9H26l0,0l-0.7,5.6l-3.6,3.9c-0.4,0.4-0.4,1,0,1.4l6.2,5.8c0.2,0.2,0.4,0.3,0.7,0.3c0.3,0,0.5-0.1,0.7-0.3
			l5.8-6.2c0.4-0.4,0.4-1,0-1.4l-3.7-3.5c0.9-2.3,1.3-4.6,1.5-5.5h3.5c0.5,2,1.7,5.1,3.2,7.1c-0.6,0.9-0.9,1.9-0.9,3
			c0,3.1,2.5,5.6,5.6,5.6s5.6-2.5,5.6-5.6c0-2.7-1.9-4.9-4.4-5.5c-0.2-0.6-0.5-1.1-0.8-1.5c-0.2-0.3-0.4-0.6-0.5-0.9l-1-2.2h10.3
			c-1,1.7-2.4,4.3-2.7,6c-0.2,1.2,0.3,1.9,0.7,2.1c0.7,0.6,1.8,0.8,3,0.4c2.2-0.7,3.4-2.9,4.4-4.6c0.1-0.2,0.2-0.4,0.4-0.7
			c0.6-1,1.1-2.1,1.5-3.3h3.6v-2H61.4z M33.1,39.8l-4.4,4.8l-4.8-4.4l2.4-2.5c0.6,0.5,1.5,1.1,2.6,1c0.5-0.1,1.2-0.3,1.7-1.1
			L33.1,39.8z M29.8,34.1c-0.2,0.6-0.4,1.1-0.6,1.7c0,0.1-0.1,0.2-0.2,0.3c-0.2,0.3-0.4,0.5-0.5,0.5c-0.3,0-0.6-0.2-0.9-0.5
			c-0.1-0.1-0.2-0.2-0.3-0.3l0.3-2.7l0.4-3.1c0,0,0-0.1,0-0.1c0-0.1,0-0.1,0-0.2L27.7,28L27,24.1c-0.1-0.5-0.6-0.9-1.2-0.8
			c-0.5,0.1-0.9,0.6-0.8,1.2l0.6,3.6H17l1.3-2.9c0.2-0.5,0-1.1-0.5-1.3c-0.5-0.2-1.1,0-1.3,0.5L14.8,28l-0.1,0.3
			c-0.1,0.3-0.1,0.7,0.1,1c0.2,0.2,0.3,0.5,0.5,0.7c1.3,1.9,3,4.7,3.1,6.1c0,0.3,0,0.5-0.1,0.6c-0.1,0-0.2,0.1-0.6,0
			c-1.1-0.2-2.2-1.3-3.1-2.4c-1-1.2-1.9-2.7-2.5-4.3c-0.1-0.3-0.2-0.6-0.3-0.8c-0.1-0.4-0.2-0.8-0.2-1.2c-0.2-2.4,1.1-5.6,2.7-7.5
			c1.8-2.1,5.3-2.4,7.7-2.4c4-0.1,6.6,0.7,8,2.3c1.6,2,1.6,4.7,1.3,7.6c0,0.4-0.1,0.8-0.2,1.2c0,0,0,0.3-0.1,0.8
			C30.7,30.9,30.4,32.4,29.8,34.1z M48,40.1c0,2-1.6,3.6-3.6,3.6s-3.6-1.6-3.6-3.6c0-0.6,0.1-1.1,0.4-1.6c0.3,0.2,0.6,0.3,0.8,0.4
			c0.2,0.1,0.5,0.1,0.8,0.1c0.7,0,1.6-0.3,2.5-1.5c0.2-0.3,0.3-0.5,0.4-0.8C47,37.3,48,38.6,48,40.1z M57.6,32.3
			c-0.1,0.2-0.2,0.4-0.4,0.7c-0.8,1.5-1.8,3.2-3.2,3.7c-0.6,0.2-1,0.1-1.1,0c0,0,0-0.1,0-0.3c0.3-1.5,2-4.6,3-6.3
			c0.2-0.3,0.3-0.5,0.4-0.7c0.2-0.2,0.2-0.5,0.1-0.8L56.3,28l-1.1-3.7c-0.2-0.5-0.7-0.8-1.2-0.7c-0.5,0.2-0.8,0.7-0.7,1.2l0.9,3.1
			H43.6l0.6-3.6c0.1-0.5-0.3-1.1-0.8-1.2c-0.5-0.1-1.1,0.3-1.2,0.8L41.6,28l-0.3,1.8c0,0.1,0,0.1,0,0.2c0,0.1,0,0.3,0.1,0.4l1.2,2.6
			c0.2,0.4,0.4,0.7,0.6,1.1c0.1,0.2,0.2,0.3,0.3,0.5c0.5,0.8,0.6,1.3,0.3,1.8c-0.1,0.1-0.1,0.2-0.2,0.2c-0.5,0.5-0.8,0.5-0.9,0.4
			c0,0,0,0,0,0c-0.5-0.2-1-0.7-1.5-1.4c-1.1-1.5-2-3.9-2.5-5.6c-0.2-0.7-0.3-1.3-0.3-1.7c0-0.1,0-0.2,0-0.3c0-1.5,0.2-2.9,0.6-4.2
			c1-3,3.1-4.8,6.2-5.2c3.8-0.5,9-0.5,12,2.1c1.6,1.4,2.5,3.6,2.5,6.3c0,0.3,0,0.7-0.1,1c-0.1,0.7-0.3,1.4-0.6,2
			C58.4,30.8,58,31.5,57.6,32.3z"/>
		<path d="M37.2,48c-0.2-0.3-0.5-0.5-0.9-0.4c-0.4,0-0.7,0.2-0.8,0.6l-4.6,9.2c-0.2,0.3-0.1,0.7,0.1,1c0.2,0.3,0.5,0.4,0.8,0.4
			c0,0,0,0,0.1,0l10.2-0.6c0.4,0,0.7-0.2,0.8-0.6c0.2-0.3,0.1-0.7-0.1-1L37.2,48z M33.5,56.6l3-6.1l3.7,5.6L33.5,56.6z"/>
	</g>
</g>
</svg>
